<?xml version="1.0" encoding="UTF-8"?>
<svg version="1.1" xmlns="http://www.w3.org/2000/svg" width="650" height="652">
<path d="M0 0 C1.76025764 -0.01073296 1.76025764 -0.01073296 3.55607605 -0.02168274 C4.85013367 -0.02437164 6.14419128 -0.02706055 7.47746277 -0.02983093 C8.84893975 -0.03609484 10.22041502 -0.04274158 11.59188843 -0.04974365 C15.32338576 -0.06715983 19.05487027 -0.07770705 22.78639817 -0.08594918 C25.11718039 -0.09109798 27.44795862 -0.09717376 29.77873802 -0.10346031 C37.06963391 -0.12251402 44.36051966 -0.13674484 51.65143567 -0.14507228 C60.07052965 -0.15484676 68.48936084 -0.18117081 76.90836221 -0.22157317 C83.41373698 -0.25172195 89.91903638 -0.26653996 96.42447966 -0.26985329 C100.3108537 -0.27220519 104.19694707 -0.28118327 108.08324623 -0.30631447 C111.73998163 -0.32957891 115.39625126 -0.33383533 119.05304146 -0.32355309 C121.03331103 -0.32282092 123.01355686 -0.34192362 124.99372864 -0.36161804 C126.17569321 -0.35467422 127.35765778 -0.34773041 128.57543945 -0.34057617 C129.60064099 -0.34296453 130.62584253 -0.34535288 131.68211079 -0.34781361 C135.22374886 0.27915474 136.90322383 1.68848536 139.47819519 4.14717102 C141.13316875 7.45711815 140.57903854 11.13840103 140.54069519 14.77217102 C140.53618347 15.5739679 140.53167175 16.37576477 140.52702332 17.20185852 C140.51522687 19.18366108 140.49729124 21.16542535 140.47819519 23.14717102 C141.04739685 22.96541321 141.61659851 22.7836554 142.20304871 22.59638977 C144.81243937 21.76961016 147.42640357 20.95831391 150.04069519 20.14717102 C150.9359491 19.86099915 151.831203 19.57482727 152.75358582 19.27998352 C162.37296227 16.32017538 162.37296227 16.32017538 167.47819519 17.14717102 C169.41178894 19.17451477 169.41178894 19.17451477 170.91569519 22.08467102 C171.76841003 23.70695618 171.76841003 23.70695618 172.63835144 25.36201477 C173.25530091 26.62194391 173.8683245 27.8838002 174.47819519 29.14717102 C174.83123718 29.8640509 175.18427917 30.58093079 175.54801941 31.3195343 C177.36200944 35.01511154 179.14443582 38.72501465 180.87663269 42.45967102 C181.30468201 43.38199524 181.30468201 43.38199524 181.74137878 44.32295227 C182.51586888 46.24044398 183.02281394 48.13215068 183.47819519 50.14717102 C184.17493347 49.98491028 184.87167175 49.82264954 185.58952332 49.6554718 C188.68357057 49.11103245 191.5561251 49.01765968 194.69694519 49.01435852 C195.87643738 49.01306946 197.05592957 49.0117804 198.27116394 49.01045227 C200.10614441 49.01625305 200.10614441 49.01625305 201.97819519 49.02217102 C203.2015155 49.01830383 204.42483582 49.01443665 205.68522644 49.01045227 C206.86471863 49.01174133 208.04421082 49.0130304 209.25944519 49.01435852 C210.33258972 49.01548645 211.40573425 49.01661438 212.51139832 49.01777649 C215.278421 49.13845803 217.78559192 49.52010083 220.47819519 50.14717102 C220.61016296 49.56322571 220.74213074 48.9792804 220.87809753 48.37763977 C221.44633509 46.26559 222.16068589 44.44000868 223.07975769 42.45967102 C223.40145935 41.76607483 223.72316101 41.07247864 224.05461121 40.35786438 C225.83391399 36.60662185 227.6439181 32.87181674 229.47819519 29.14717102 C229.94781677 28.17433167 229.94781677 28.17433167 230.42692566 27.18183899 C231.26664253 25.4669761 232.15230374 23.77483072 233.04069519 22.08467102 C233.53698425 21.12431946 234.03327332 20.1639679 234.54460144 19.17451477 C236.47819519 17.14717102 236.47819519 17.14717102 239.41569519 16.61592102 C245.0839911 17.03964202 250.530785 19.00451417 255.91569519 20.70967102 C257.06408875 21.06738586 258.2124823 21.42510071 259.39567566 21.7936554 C268.38509386 24.65673649 276.98880368 28.04353766 285.47819519 32.14717102 C285.6963901 41.50530809 285.4855529 50.70297982 284.54069519 60.02217102 C284.41041931 61.31429504 284.41041931 61.31429504 284.2775116 62.63252258 C283.91400909 65.99609665 283.55294072 68.92293444 282.47819519 72.14717102 C283.20135925 72.41658508 283.92452332 72.68599915 284.66960144 72.96357727 C293.22573445 76.56929118 300.5510091 82.6013664 307.70646667 88.414505 C311.7790094 91.82844579 311.7790094 91.82844579 316.47819519 94.14717102 C318.76189277 93.38209607 318.76189277 93.38209607 320.99772644 91.85810852 C321.85559753 91.32830383 322.71346863 90.79849915 323.59733582 90.25263977 C324.48614441 89.68158508 325.374953 89.1105304 326.29069519 88.52217102 C328.04690994 87.42534329 329.80341508 86.32898038 331.56022644 85.23310852 C335.03607954 83.05420784 335.03607954 83.05420784 338.49919128 80.85517883 C340.97084301 79.33858993 343.23857042 78.20626155 346.06022644 77.51045227 C349.89219781 78.51951743 351.79222772 81.35344024 354.16569519 84.33467102 C354.94735046 85.28382385 354.94735046 85.28382385 355.74479675 86.25215149 C357.3408263 88.20323204 358.91222907 90.17191264 360.47819519 92.14717102 C360.9398407 92.72322083 361.40148621 93.29927063 361.87712097 93.89277649 C364.82777977 97.58572569 367.67427433 101.34151549 370.47819519 105.14717102 C370.88151062 105.68680481 371.28482605 106.2264386 371.70036316 106.78242493 C372.875875 108.36825247 374.02133458 109.97621963 375.16569519 111.58467102 C376.16149597 112.97492493 376.16149597 112.97492493 377.17741394 114.39326477 C378.86710877 117.97054662 378.70421347 119.39424483 377.47819519 123.14717102 C375.97662394 125.85014622 374.22760686 128.33204404 372.41569519 130.83467102 C371.96258972 131.47855774 371.50948425 132.12244446 371.04264832 132.7858429 C370.57665222 133.44519836 370.11065613 134.10455383 369.63053894 134.78388977 C369.16655197 135.44935822 368.702565 136.11482666 368.22451782 136.80046082 C366.47819519 139.14717102 366.47819519 139.14717102 364.45550537 141.34190369 C357.0862178 149.87179242 357.3468445 157.5832886 357.47819519 168.28388977 C357.47066341 170.01696588 357.45961777 171.75002994 357.44523621 173.48306274 C357.41698581 178.00930885 357.4359695 182.53412785 357.46531677 187.06031799 C357.48682089 191.6928759 357.462931 196.32518552 357.44303894 200.9577179 C357.41072112 210.02118966 357.42837884 219.08380413 357.47819519 228.14717102 C358.63569275 228.36433777 358.63569275 228.36433777 359.8165741 228.58589172 C362.70456839 229.19490832 365.14542335 230.16282018 367.85319519 231.33467102 C371.31217201 232.81465247 374.77145242 234.27492041 378.27897644 235.63545227 C397.44024846 243.07127755 397.44024846 243.07127755 399.47819519 247.14717102 C399.57500668 249.22356925 399.60616242 251.30313674 399.60758972 253.38179016 C399.61074188 254.69398026 399.61389404 256.00617035 399.61714172 257.35812378 C399.61535059 258.79952528 399.6132993 260.24092648 399.61100769 261.68232727 C399.61168148 263.16006486 399.61265213 264.63780234 399.61390686 266.11553955 C399.61538353 269.2200882 399.61323243 272.32460813 399.60856628 275.42915344 C399.60290383 279.387615 399.60612591 283.34600822 399.61213875 287.3044672 C399.61577507 290.36130271 399.61459115 293.4181224 399.61201096 296.47495842 C399.61134834 297.93284043 399.61214661 299.39072392 399.61449051 300.8486042 C399.62388879 308.3460197 399.51326225 315.70897561 398.47819519 323.14717102 C397.81819519 323.14717102 397.15819519 323.14717102 396.47819519 323.14717102 C396.35444519 323.71822571 396.23069519 324.2892804 396.10319519 324.87763977 C393.13655322 336.54025102 385.78499162 347.50888272 377.47819519 356.14717102 C376.81819519 356.14717102 376.15819519 356.14717102 375.47819519 356.14717102 C375.16882019 356.78654602 374.85944519 357.42592102 374.54069519 358.08467102 C373.47819519 360.14717102 373.47819519 360.14717102 372.47819519 361.14717102 C404.65319519 361.64217102 404.65319519 361.64217102 437.47819519 362.14717102 C437.47819519 368.74717102 437.47819519 375.34717102 437.47819519 382.14717102 C429.22819519 382.47717102 420.97819519 382.80717102 412.47819519 383.14717102 C412.47819519 407.89717102 412.47819519 432.64717102 412.47819519 458.14717102 C404.55819519 458.14717102 396.63819519 458.14717102 388.47819519 458.14717102 C388.47819519 433.06717102 388.47819519 407.98717102 388.47819519 382.14717102 C380.22819519 382.14717102 371.97819519 382.14717102 363.47819519 382.14717102 C363.14819519 377.85717102 362.81819519 373.56717102 362.47819519 369.14717102 C361.03444519 370.30217102 359.59069519 371.45717102 358.10319519 372.64717102 C353.72819519 376.14717102 353.72819519 376.14717102 351.47819519 376.14717102 C351.8765155 376.74142883 352.27483582 377.33568665 352.68522644 377.94795227 C353.21503113 378.77681946 353.74483582 379.60568665 354.29069519 380.45967102 C354.8127655 381.26017883 355.33483582 382.06068665 355.87272644 382.88545227 C360.0371816 391.34608503 360.98405199 399.75645025 360.85319519 409.08467102 C360.83688049 410.66671326 360.83688049 410.66671326 360.82023621 412.28071594 C360.52620879 426.62148702 357.07852718 437.27349752 347.16569519 447.95967102 C338.11152366 456.48003652 329.56869374 458.39522556 317.55656433 458.49726868 C316.14168228 458.51372642 314.7268798 458.54088057 313.31242371 458.57929993 C301.69842718 458.89249247 293.65072455 456.95269776 284.54069519 449.52217102 C283.83042175 448.9524054 283.12014832 448.38263977 282.38835144 447.79560852 C278.99330538 444.86573237 276.58204172 442.15449774 274.47819519 438.14717102 C274.47819519 437.15717102 274.47819519 436.16717102 274.47819519 435.14717102 C273.81819519 435.14717102 273.15819519 435.14717102 272.47819519 435.14717102 C271.99309726 433.77425234 271.51544006 432.39870399 271.04069519 431.02217102 C270.77385925 430.2564679 270.50702332 429.49076477 270.23210144 428.70185852 C266.27687054 415.29915898 266.39808046 396.53433955 273.09538269 384.15888977 C276.93564437 377.93700657 281.20732441 372.22979641 286.47819519 367.14717102 C286.00510925 366.74627258 285.53202332 366.34537415 285.04460144 365.93232727 C281.14702894 362.58178249 277.38122445 359.13885173 273.72819519 355.52217102 C272.58737488 354.39295227 272.58737488 354.39295227 271.42350769 353.24092102 C269.47819519 351.14717102 269.47819519 351.14717102 267.60319519 348.02217102 C265.68856176 345.94974163 265.68856176 345.94974163 263.39616394 346.00263977 C260.39407519 346.24118655 257.45713131 346.70204039 254.47819519 347.14717102 C243.30905633 348.68762778 232.37342505 349.46046991 221.09538269 349.44795227 C219.58294055 349.45186184 218.07049947 349.4562009 216.55805969 349.4609375 C213.41356321 349.46831851 210.26917913 349.4681696 207.12467957 349.46284485 C203.95428752 349.45822222 200.78427986 349.46511115 197.61393738 349.48335266 C179.38059861 349.587217 161.4896597 349.39568127 143.47819519 346.14717102 C142.20008972 345.9174762 140.92198425 345.68778137 139.60514832 345.4511261 C136.47933345 344.83355491 133.38751697 344.14557605 130.29069519 343.39717102 C129.21102478 343.13968079 128.13135437 342.88219055 127.01896667 342.61689758 C105.86561544 337.41251404 84.96684727 329.83939408 68.47819519 315.14717102 C67.56811707 314.4536554 66.65803894 313.76013977 65.72038269 313.04560852 C64.98046082 312.41912415 64.24053894 311.79263977 63.47819519 311.14717102 C63.47819519 310.48717102 63.47819519 309.82717102 63.47819519 309.14717102 C62.81819519 309.14717102 62.15819519 309.14717102 61.47819519 309.14717102 C50.12597632 295.70751644 45.92710343 280.70302072 46.22038269 263.3429718 C46.22786026 262.13621796 46.23533783 260.92946411 46.24304199 259.68614197 C46.25992169 257.08953867 46.28309366 254.4929699 46.31202698 251.89647293 C46.3576177 247.774693 46.37083643 243.6531776 46.37785339 239.53117371 C46.40119947 227.81957514 46.44178599 216.10862823 46.57048035 204.3976593 C46.6415383 197.9075275 46.67263694 191.41845969 46.66019058 184.92793643 C46.65531239 181.50766712 46.67005016 178.09017854 46.73472595 174.67045975 C47.01178182 157.91206219 46.26338307 147.46883744 34.47819519 135.14717102 C34.47819519 134.48717102 34.47819519 133.82717102 34.47819519 133.14717102 C32.65445374 133.18644714 32.65445374 133.18644714 30.79386902 133.22651672 C26.27468838 133.31714862 21.75558775 133.3744675 17.23576355 133.42182922 C15.28119896 133.44694383 13.32672802 133.48104233 11.3724823 133.52436829 C8.55982851 133.58515536 5.74841817 133.61341085 2.93522644 133.63545227 C2.06420792 133.6612587 1.19318939 133.68706512 0.29577637 133.71365356 C-0.52469681 133.71403122 -1.34516998 133.71440887 -2.19050598 133.71479797 C-2.90776352 133.72590103 -3.62502106 133.73700409 -4.36401367 133.7484436 C-8.03559346 132.72535095 -9.31341121 131.25718225 -11.52180481 128.14717102 C-12.26295022 124.25402847 -12.19436209 120.4126681 -12.15290833 116.45967102 C-12.16006363 115.27703674 -12.16721893 114.09440247 -12.17459106 112.87593079 C-12.18858654 109.64009196 -12.18018581 106.40529087 -12.16050076 103.16950989 C-12.14408921 99.77924168 -12.15293062 96.38902476 -12.15802002 92.99873352 C-12.16253823 87.30589132 -12.14668852 81.61337799 -12.11872864 75.92060852 C-12.08667756 69.344253 -12.0866931 62.76849052 -12.10394341 56.1920929 C-12.11982181 49.85900964 -12.11306663 43.52614326 -12.09600639 37.19306946 C-12.08914394 34.50095324 -12.09015992 31.80901129 -12.09755135 29.11689758 C-12.10299555 25.35578051 -12.08265123 21.5956731 -12.05525208 17.83467102 C-12.06504089 16.16223328 -12.06504089 16.16223328 -12.07502747 14.45600891 C-11.98146057 6.91022935 -11.98146057 6.91022935 -9.61346436 2.97920227 C-6.2825819 0.06176728 -4.35625238 0.01817879 0 0 Z M300.47819519 386.14717102 C293.09712479 395.92954966 292.67647322 407.36447759 293.90788269 419.28388977 C295.10437374 425.29093044 297.64855431 430.27061627 301.91569519 434.64717102 C307.63018948 437.99224085 312.95338213 438.87594595 319.47819519 438.14717102 C324.70327014 436.49256395 328.12347284 434.49924326 331.47819519 430.14717102 C337.00688892 418.62440531 337.3501764 407.51427378 334.47819519 395.14717102 C333.40588181 391.76015002 333.40588181 391.76015002 331.47819519 389.14717102 C328.8638697 388.42708126 328.8638697 388.42708126 325.91569519 388.64717102 C319.88917066 388.47895492 316.43100982 386.84002195 311.53678894 383.42451477 C307.17936654 380.72076311 303.87927059 383.07000757 300.47819519 386.14717102 Z " fill="#020202" transform="translate(120.52180480957031,61.85282897949219)"/>
<path d="M0 0 C2.82768624 2.41443933 2.98297087 2.81989806 3.36076355 6.81547546 C3.36947531 8.4416715 3.36145228 10.06800643 3.34057617 11.6940918 C3.34101425 12.5821048 3.34145233 13.4701178 3.34190369 14.38504028 C3.3398119 17.32332261 3.3164624 20.26103597 3.29296875 23.19921875 C3.28737419 25.23517037 3.28310343 27.27112603 3.28010559 29.30708313 C3.26864586 34.66821423 3.23916887 40.02910187 3.20599365 45.39013672 C3.17531714 50.85966702 3.16160542 56.32923661 3.14648438 61.79882812 C3.11430033 72.5326591 3.06309027 83.26630932 3 94 C11.19966137 95.22702218 19.37013423 96.31545449 27.6328125 97 C29.52866719 97.16642361 31.42449995 97.33309708 33.3203125 97.5 C36.24518422 97.75321852 39.17023132 98.00380645 42.09570312 98.25 C44.96290803 98.49288698 47.82909468 98.74576595 50.6953125 99 C51.57132111 99.07089844 52.44732971 99.14179688 53.34988403 99.21484375 C54.16528656 99.28832031 54.98068909 99.36179687 55.82080078 99.4375 C56.53358185 99.49808594 57.24636292 99.55867188 57.98074341 99.62109375 C60.28714781 100.05388226 61.9855815 100.8047045 64 102 C69.23314739 109.73155325 67.11800382 123.136602 67 132 C67.78117187 131.97679687 68.56234375 131.95359375 69.3671875 131.9296875 C79.24005573 131.77576751 88.97385888 132.44693617 98.81005859 133.28857422 C104.56665105 133.77398657 110.22279382 134.11231507 116 134 C116.14248169 132.94087402 116.14248169 132.94087402 116.2878418 131.86035156 C116.73208687 128.65335034 117.20938046 125.4521186 117.6875 122.25 C117.83638672 121.13882813 117.98527344 120.02765625 118.13867188 118.8828125 C118.38520508 117.27792969 118.38520508 117.27792969 118.63671875 115.640625 C118.77811279 114.65610352 118.91950684 113.67158203 119.06518555 112.65722656 C120.31032242 109.11790306 121.8854405 108.05136023 125 106 C127.95935059 105.49206543 127.95935059 105.49206543 131.27148438 105.48242188 C132.51627563 105.46981323 133.76106689 105.45720459 135.0435791 105.44421387 C136.39364185 105.45137395 137.74369942 105.45957801 139.09375 105.46875 C140.48710399 105.46605318 141.88045614 105.46216917 143.27380371 105.45715332 C146.18906636 105.45126705 149.1038376 105.45979221 152.01904297 105.47851562 C155.74838121 105.50130574 159.47656793 105.48817783 163.20586395 105.46422577 C166.08161024 105.44974357 168.95708533 105.45438463 171.83283997 105.46473694 C173.20750567 105.46739759 174.58219633 105.46415775 175.95683289 105.45481873 C177.88072208 105.44461534 179.80469807 105.46293529 181.72851562 105.48242188 C182.82151978 105.48560425 183.91452393 105.48878662 185.04064941 105.49206543 C188.70258324 106.1205894 190.37548361 107.4151339 193 110 C193.93481445 112.65722656 193.93481445 112.65722656 194.36328125 115.640625 C194.52763672 116.71054687 194.69199219 117.78046875 194.86132812 118.8828125 C195.01021484 119.99398437 195.15910156 121.10515625 195.3125 122.25 C195.48072266 123.37664062 195.64894531 124.50328125 195.82226562 125.6640625 C196.23402611 128.44050464 196.62578335 131.21829113 197 134 C200.3 134 203.6 134 207 134 C206.97643433 132.43318481 206.97643433 132.43318481 206.95239258 130.8347168 C206.89810303 126.96028348 206.8636537 123.08588381 206.83520508 119.21118164 C206.82011616 117.5340408 206.79964252 115.85693943 206.77368164 114.17993164 C206.73730189 111.76959496 206.72027514 109.35977981 206.70703125 106.94921875 C206.69154739 106.19912033 206.67606354 105.44902191 206.66011047 104.67619324 C206.65841642 99.43910713 206.65841642 99.43910713 208.23474121 97.41273499 C210.26587895 95.78721732 212.18825456 94.85737665 214.5847168 93.84277344 C215.51386398 93.44515808 216.44301117 93.04754272 217.40031433 92.63787842 C218.40645279 92.21597229 219.41259125 91.79406616 220.44921875 91.359375 C221.49463333 90.91410461 222.54004791 90.46883423 223.61714172 90.0100708 C226.97107267 88.58321105 230.32912331 87.16635991 233.6875 85.75 C236.98932699 84.34960577 240.29028662 82.94719091 243.59085083 81.54382324 C245.74013952 80.63185995 247.89091377 79.72338961 250.04318237 78.81848145 C254.65498816 76.87544891 259.2433913 74.91504939 263.76416016 72.76757812 C264.47337112 72.4360675 265.18258209 72.10455688 265.9132843 71.76300049 C267.7219386 70.90956495 269.51946443 70.0326464 271.31567383 69.15332031 C281.33967521 66.01546447 288.99042342 68.63448578 298.1875 73 C299.23486328 73.47695313 300.28222656 73.95390625 301.36132812 74.4453125 C303.91660346 75.61210489 306.46166754 76.79690785 309 78 C309.00586624 77.06705612 309.01173248 76.13411224 309.01777649 75.17289734 C309.07494697 66.3881239 309.14767853 57.60359935 309.23571491 48.8190794 C309.28047535 44.30266281 309.31971877 39.78633762 309.34643555 35.26977539 C309.37241219 30.91242194 309.41277405 26.55541912 309.46318626 22.19828224 C309.47989329 20.53452726 309.49138363 18.87071158 309.49761391 17.20688438 C309.50721365 14.87932807 309.53522147 12.55267657 309.56762695 10.2253418 C309.56619186 9.53482224 309.56475677 8.84430267 309.5632782 8.13285828 C309.6472637 3.87813263 309.81541155 3.18458845 313 0 C312.67 26.4 312.34 52.8 312 80 C313.65 80.33 315.3 80.66 317 81 C318.8087167 81.68578231 320.59975331 82.41922097 322.375 83.1875 C325.83397682 84.66748145 329.29325723 86.12774939 332.80078125 87.48828125 C351.96205327 94.92410653 351.96205327 94.92410653 354 99 C354.09681149 101.07639823 354.12796723 103.15596572 354.12939453 105.23461914 C354.13254669 106.54680923 354.13569885 107.85899933 354.13894653 109.21095276 C354.1371554 110.65235426 354.13510411 112.09375546 354.1328125 113.53515625 C354.13348629 115.01289384 354.13445694 116.49063132 354.13571167 117.96836853 C354.13718834 121.07291718 354.13503724 124.17743711 354.13037109 127.28198242 C354.12470864 131.24044398 354.12793072 135.1988372 354.13394356 139.15729618 C354.13757988 142.21413169 354.13639596 145.27095138 354.13381577 148.3277874 C354.13315315 149.78566941 354.13395142 151.2435529 354.13629532 152.70143318 C354.1456936 160.19884868 354.03506706 167.56180459 353 175 C352.34 175 351.68 175 351 175 C350.87625 175.57105469 350.7525 176.14210938 350.625 176.73046875 C347.65835803 188.39308 340.30679642 199.3617117 332 208 C331.34 208 330.68 208 330 208 C329.690625 208.639375 329.38125 209.27875 329.0625 209.9375 C328 212 328 212 327 213 C359.175 213.495 359.175 213.495 392 214 C392 220.6 392 227.2 392 234 C379.625 234.495 379.625 234.495 367 235 C367 259.75 367 284.5 367 310 C359.08 310 351.16 310 343 310 C343 284.92 343 259.84 343 234 C334.75 234 326.5 234 318 234 C317.67 229.71 317.34 225.42 317 221 C315.55625 222.155 314.1125 223.31 312.625 224.5 C308.25 228 308.25 228 306 228 C306.39832031 228.59425781 306.79664063 229.18851563 307.20703125 229.80078125 C307.73683594 230.62964844 308.26664062 231.45851563 308.8125 232.3125 C309.33457031 233.11300781 309.85664063 233.91351563 310.39453125 234.73828125 C314.55898641 243.198914 315.5058568 251.60927923 315.375 260.9375 C315.3586853 262.51954224 315.3586853 262.51954224 315.34204102 264.13354492 C315.0480136 278.474316 311.60033199 289.1263265 301.6875 299.8125 C292.63332847 308.3328655 284.09049855 310.24805454 272.07836914 310.35009766 C270.66348709 310.3665554 269.24868461 310.39370955 267.83422852 310.43212891 C256.22023199 310.74532145 248.17252936 308.80552674 239.0625 301.375 C238.35222656 300.80523437 237.64195312 300.23546875 236.91015625 299.6484375 C233.51511018 296.71856135 231.10384653 294.00732672 229 290 C229 289.01 229 288.02 229 287 C228.34 287 227.68 287 227 287 C226.51490207 285.62708132 226.03724487 284.25153297 225.5625 282.875 C225.29566406 282.10929687 225.02882813 281.34359375 224.75390625 280.5546875 C220.79867535 267.15198796 220.91988527 248.38716853 227.6171875 236.01171875 C231.45744918 229.78983555 235.72912922 224.08262539 241 219 C240.52691406 218.59910156 240.05382812 218.19820312 239.56640625 217.78515625 C235.66883375 214.43461147 231.90302926 210.99168071 228.25 207.375 C227.48945313 206.6221875 226.72890625 205.869375 225.9453125 205.09375 C224 203 224 203 222.125 199.875 C220.21036656 197.80257061 220.21036656 197.80257061 217.91796875 197.85546875 C214.91588 198.09401553 211.97893612 198.55486937 209 199 C197.83086114 200.54045676 186.89522986 201.31329889 175.6171875 201.30078125 C174.10474536 201.30469082 172.59230428 201.30902988 171.0798645 201.31376648 C167.93536802 201.32114749 164.79098394 201.32099858 161.64648438 201.31567383 C158.47609233 201.3110512 155.30608467 201.31794013 152.13574219 201.33618164 C133.90240342 201.44004598 116.01146451 201.24851025 98 198 C96.72189453 197.77030518 95.44378906 197.54061035 94.12695312 197.30395508 C91.00113826 196.68638389 87.90932177 195.99840503 84.8125 195.25 C83.73282959 194.99250977 82.65315918 194.73501953 81.54077148 194.46972656 C60.38742025 189.26534302 39.48865208 181.69222306 23 167 C22.08992188 166.30648437 21.17984375 165.61296875 20.2421875 164.8984375 C19.50226563 164.27195312 18.76234375 163.64546875 18 163 C18 162.34 18 161.68 18 161 C17.34 161 16.68 161 16 161 C4.513474 147.40134201 0.54576243 132.29755123 0.56762695 114.77416992 C0.5574353 113.52381454 0.54724365 112.27345917 0.53674316 110.98521423 C0.51196618 107.60166799 0.49993245 104.21855371 0.49388909 100.83495498 C0.48442199 97.28218209 0.45821288 93.72953069 0.43388367 90.17683411 C0.39044186 83.4695073 0.3617586 76.76220436 0.33856028 70.0547803 C0.31138793 62.41005528 0.26748459 54.76545383 0.22227156 47.12081754 C0.12974552 31.41394218 0.05791924 15.70704346 0 0 Z M255 238 C247.6189296 247.78237864 247.19827803 259.21730657 248.4296875 271.13671875 C249.62617855 277.14375942 252.17035912 282.12344525 256.4375 286.5 C262.15199429 289.84506983 267.47518694 290.72877493 274 290 C279.22507495 288.34539293 282.64527765 286.35207224 286 282 C291.52869373 270.47723429 291.87198121 259.36710276 289 247 C287.92768662 243.612979 287.92768662 243.612979 286 241 C283.38567451 240.27991024 283.38567451 240.27991024 280.4375 240.5 C274.41097547 240.3317839 270.95281463 238.69285093 266.05859375 235.27734375 C261.70117135 232.57359209 258.4010754 234.92283655 255 238 Z " fill="#3E3E3E" transform="translate(166,210)"/>
<path d="M0 0 C10.63007946 -0.44517419 21.135674 0.89055512 31.6875 2 C33.56440078 2.19321753 35.44135361 2.38593007 37.31835938 2.578125 C41.87952748 3.04626146 46.43993599 3.52123307 51 4 C51.06731323 5.15000488 51.06731323 5.15000488 51.13598633 6.32324219 C51.34741593 9.79985054 51.5797175 13.27475883 51.8125 16.75 C51.88275391 17.9565625 51.95300781 19.163125 52.02539062 20.40625 C52.10595703 21.56640625 52.18652344 22.7265625 52.26953125 23.921875 C52.33760986 24.99018555 52.40568848 26.05849609 52.47583008 27.15917969 C53.05206649 30.28218243 53.79569431 31.74095542 56 34 C58.95061456 34.98353819 61.28113134 35.260827 64.37011719 35.48071289 C66.0176297 35.60072411 66.0176297 35.60072411 67.69842529 35.72315979 C69.4796579 35.84666054 69.4796579 35.84666054 71.296875 35.97265625 C72.51900696 36.06002548 73.74113892 36.14739471 75.00030518 36.2374115 C77.58926377 36.42161911 80.17835979 36.60390383 82.76757812 36.78442383 C86.72041076 37.06043391 90.67271624 37.34320321 94.625 37.62695312 C97.14059642 37.80509162 99.65622058 37.98283872 102.171875 38.16015625 C103.35126648 38.24451431 104.53065796 38.32887238 105.74578857 38.41578674 C108.82970839 38.62913169 111.91417724 38.81682315 115 39 C115.72916626 39.06339569 116.45833252 39.12679138 117.20959473 39.19210815 C119.23885505 39.36342758 119.23885505 39.36342758 122 39 C128.7124449 33.06253935 128.7124449 33.06253935 130 11 C146.17 11 162.34 11 179 11 C180.98 22.88 180.98 22.88 183 35 C186.33231352 39.05526613 186.33231352 39.05526613 189.10644531 39.45410156 C190.20617676 39.42268066 190.20617676 39.42268066 191.328125 39.390625 C192.12734375 39.37773437 192.9265625 39.36484375 193.75 39.3515625 C194.575 39.31804687 195.4 39.28453125 196.25 39.25 C197.09046875 39.23195313 197.9309375 39.21390625 198.796875 39.1953125 C200.86507395 39.14830798 202.93268441 39.07656724 205 39 C205.01417969 40.11375 205.02835938 41.2275 205.04296875 42.375 C205.42080816 56.94673877 208.16177137 69.31930223 215.9609375 81.86328125 C217 84 217 84 216 87 C192.68846055 91.07069955 169.39558875 92.17777189 145.77331543 92.29653931 C143.71347317 92.30698188 141.65364718 92.32176132 139.59387207 92.34140015 C120.38128342 92.50001415 101.5260455 90.77247904 82.8125 86.25 C81.73282959 85.99250977 80.65315918 85.73501953 79.54077148 85.46972656 C58.38742025 80.26534302 37.48865208 72.69222306 21 58 C20.11957031 57.32066406 19.23914063 56.64132812 18.33203125 55.94140625 C15.47353589 53.56172084 14.58519317 51.36060952 13 48 C12.05575336 46.61528846 11.0958897 45.24116286 10.125 43.875 C4.77107555 36.01100623 1.05454291 27.11681775 0.68359375 17.578125 C0.62075195 16.04091797 0.62075195 16.04091797 0.55664062 14.47265625 C0.51732422 13.40917969 0.47800781 12.34570312 0.4375 11.25 C0.39431641 10.17105469 0.35113281 9.09210938 0.30664062 7.98046875 C0.20071011 5.32043572 0.09863579 2.66031188 0 0 Z " fill="#020202" transform="translate(168,319)"/>
<path d="M0 0 C2.38868104 1.06903995 4.79435986 2.0918828 7.20477295 3.11096191 C12.00695192 5.14558456 16.79595733 7.20923203 21.58099365 9.28381348 C24.58518939 10.58595078 27.59137757 11.88340235 30.59783936 13.18029785 C32.52439018 14.01335712 34.45082661 14.84668098 36.37713623 15.68029785 C37.2678331 16.06473053 38.15852997 16.44916321 39.07621765 16.84524536 C40.71465074 17.55656034 42.34937201 18.2765175 43.97935486 19.00698853 C45.8590407 19.83405403 47.77098346 20.58701111 49.68670654 21.32678223 C52.13104248 22.95373535 52.13104248 22.95373535 52.92913818 25.81262207 C52.96140503 27.51829346 52.96140503 27.51829346 52.99432373 29.25842285 C53.03122314 30.51364746 53.06812256 31.76887207 53.10614014 33.06213379 C53.11435791 34.3463623 53.12257568 35.63059082 53.13104248 36.95373535 C53.16117432 38.12194824 53.19130615 39.29016113 53.22235107 40.49377441 C53.30037749 44.02335137 53.32046079 47.54833207 53.31854248 51.07873535 C53.31918701 52.32614502 53.31983154 53.57355469 53.32049561 54.85876465 C53.26138448 65.31941821 52.48274504 75.5866595 51.13104248 85.95373535 C47.8162056 82.75135659 45.43017906 80.4416617 44.13104248 75.95373535 C44.13104248 74.96373535 44.13104248 73.97373535 44.13104248 72.95373535 C41.47968493 74.27941413 41.37934856 75.47723803 40.31854248 78.20373535 C38.52148821 82.45563358 36.6096401 84.95827629 33.13104248 87.95373535 C32.47104248 87.62373535 31.81104248 87.29373535 31.13104248 86.95373535 C31.15722656 86.15677246 31.18341064 85.35980957 31.21038818 84.53869629 C31.31433193 80.92724322 31.37936333 77.31610463 31.44354248 73.70373535 C31.48543701 72.44947754 31.52733154 71.19521973 31.57049561 69.9029541 C31.58660889 68.69768066 31.60272217 67.49240723 31.61932373 66.25061035 C31.64550781 65.14040527 31.67169189 64.0302002 31.69866943 62.88635254 C31.38541625 59.76638731 31.38541625 59.76638731 28.7880249 57.68518066 C27.9112207 57.11380371 27.0344165 56.54242676 26.13104248 55.95373535 C23.13104248 53.95373535 23.13104248 53.95373535 22.45526123 51.80529785 C22.13518636 48.9901815 22.03999205 46.21385426 21.99261475 43.38244629 C21.78851719 34.84081143 19.89121957 29.17607301 15.13104248 21.95373535 C14.82037842 21.2370166 14.50971436 20.52029785 14.18963623 19.78186035 C12.82494581 17.4251256 11.62379604 16.99089888 9.13104248 15.95373535 C8.32666748 15.53994629 7.52229248 15.12615723 6.69354248 14.6998291 C5.42510498 14.0520752 5.42510498 14.0520752 4.13104248 13.39123535 C2.86260498 12.73961426 2.86260498 12.73961426 1.56854248 12.0748291 C-4.99328841 9.05680752 -12.62785905 8.8904227 -19.59552002 10.6373291 C-29.80148279 14.44481676 -36.15536238 20.10622449 -40.86895752 29.95373535 C-43.0660886 35.21769522 -43.29071463 40.20568203 -43.49395752 45.82873535 C-43.53262939 46.70787598 -43.57130127 47.5870166 -43.61114502 48.49279785 C-43.70476786 50.64612328 -43.78792211 52.7998995 -43.86895752 54.95373535 C-45.62677002 55.60477702 -47.38458252 56.25581868 -49.14239502 56.90686035 C-51.41704255 58.2860584 -51.96481883 59.47062781 -52.86895752 61.95373535 C-54.88685909 78.05389936 -52.56007643 93.72021881 -42.86895752 106.95373535 C-35.4204254 115.37323684 -23.90986582 123.33652522 -12.86895752 125.95373535 C-7.28442247 125.69608668 -2.95304359 123.94533476 1.94354248 121.45373535 C2.99130859 120.92296387 2.99130859 120.92296387 4.0602417 120.38146973 C15.5384488 114.32551569 24.55232305 105.16365384 29.13104248 92.95373535 C30.22416748 93.38686035 31.31729248 93.81998535 32.44354248 94.26623535 C33.05842529 94.50986816 33.67330811 94.75350098 34.30682373 95.0045166 C37.86455521 96.8557559 39.64421917 99.23018177 40.88104248 103.01623535 C41.54642107 106.37585181 41.38393776 107.55403744 39.52947998 110.48498535 C37.16700526 113.11536958 34.70696335 115.53122805 32.13104248 117.95373535 C30.87960328 119.24396695 29.62831364 120.53434363 28.37713623 121.8248291 C24.23496136 125.97040397 19.79965287 129.50617624 15.06854248 132.95373535 C14.24652344 133.55314941 13.42450439 134.15256348 12.57757568 134.7701416 C-6.57689291 148.4918613 -6.57689291 148.4918613 -12.71270752 147.4888916 C-17.01646645 145.39560291 -21.02902813 142.97174388 -25.05645752 140.39123535 C-25.90288818 139.85039307 -26.74931885 139.30955078 -27.62139893 138.75231934 C-34.09355153 134.5613556 -40.17499039 130.17036392 -45.86895752 124.95373535 C-46.38651611 124.48387207 -46.90407471 124.01400879 -47.43731689 123.52990723 C-59.43491452 112.51687213 -68.12921268 101.13703592 -71.86895752 84.95373535 C-72.05329346 84.2060791 -72.23762939 83.45842285 -72.42755127 82.68811035 C-73.09361248 78.56206748 -73.25385055 74.43872272 -73.43145752 70.26623535 C-73.47391602 69.29613525 -73.51637451 68.32603516 -73.56011963 67.32653809 C-74.12595454 52.54538194 -73.95410952 37.74267332 -73.86895752 22.95373535 C-56.2793754 15.01321032 -38.61871543 7.27507247 -20.67950439 0.15246582 C-17.95748009 -0.92706716 -17.95748009 -0.92706716 -15.94903564 -2.22546387 C-10.36058863 -5.63359572 -5.36504643 -2.42022184 0 0 Z " fill="#000000" transform="translate(456.86895751953125,292.0462646484375)"/>
<path d="M0 0 C6.43703398 -0.10251646 12.87385289 -0.17192681 19.31152344 -0.21972656 C21.49552273 -0.23968058 23.67946973 -0.26685371 25.86328125 -0.30175781 C42.36833378 -0.5587046 58.02852688 -0.79014253 71 11 C75.53882837 15.8568902 78.76130353 20.75521512 81 27 C81.52134521 28.39968018 81.52134521 28.39968018 82.05322266 29.82763672 C83.65439099 35.19266544 83.36894136 40.56316986 83.375 46.125 C83.39949219 47.28515625 83.42398438 48.4453125 83.44921875 49.640625 C83.49044491 61.92602094 80.36176661 72.76624283 72 82 C63.42001259 89.81122054 51.46718053 96.11685462 39.61450195 96.12939453 C38.75713943 96.13254669 37.89977692 96.13569885 37.01643372 96.13894653 C36.0996434 96.1369223 35.18285309 96.13489807 34.23828125 96.1328125 C33.29188278 96.13376923 32.34548431 96.13472595 31.3704071 96.13571167 C29.37413466 96.13639125 27.37785998 96.13455243 25.3815918 96.13037109 C22.31358943 96.12500191 19.24573229 96.13033272 16.17773438 96.13671875 C14.23958301 96.13605828 12.30143173 96.13477776 10.36328125 96.1328125 C8.97898674 96.13584885 8.97898674 96.13584885 7.56672668 96.13894653 C1.11496156 96.11496156 1.11496156 96.11496156 0 95 C-0.09526806 92.04753646 -0.12552452 89.11851579 -0.11352539 86.16577148 C-0.11367142 85.23903625 -0.11381744 84.31230103 -0.1139679 83.35748291 C-0.11326838 80.27866313 -0.10547421 77.19990303 -0.09765625 74.12109375 C-0.09579221 71.99259982 -0.09436824 69.86410547 -0.09336853 67.73561096 C-0.08954228 62.1213768 -0.07971108 56.50716832 -0.06866455 50.89294434 C-0.05845273 45.16886747 -0.0538714 39.44478647 -0.04882812 33.72070312 C-0.03808891 22.48045744 -0.0210112 11.24023085 0 0 Z M24 20 C24 37.82 24 55.64 24 74 C39.52108608 74.52774708 39.52108608 74.52774708 53 68 C54.62232926 65.72114285 55.75187615 63.54082355 57 61 C57.5878125 59.824375 57.5878125 59.824375 58.1875 58.625 C61.12696631 49.12826268 59.84387598 40.55399698 55.6875 31.625 C52.20955624 25.13690608 49.06480496 23.35493499 42 21 C36.06 20.67 30.12 20.34 24 20 Z " fill="#010101" transform="translate(296,424)"/>
<path d="M0 0 C1.16853516 -0.03287109 2.33707031 -0.06574219 3.54101562 -0.09960938 C14.35938425 -0.16597973 23.65479235 3.22264298 31.8125 10.4375 C40.90851605 19.57745815 45.01376837 30.6577939 45.8125 43.4375 C45.86535156 44.22125 45.91820312 45.005 45.97265625 45.8125 C46.41572959 58.75794709 44.15225186 73.06968027 35.5 83.125 C34.1696875 84.2696875 34.1696875 84.2696875 32.8125 85.4375 C31.95011719 86.26701172 31.95011719 86.26701172 31.0703125 87.11328125 C21.56849814 96.02361721 13.00010738 98.34249941 0.0625 98.1875 C-0.60291809 98.18363281 -1.26833618 98.17976562 -1.95391846 98.17578125 C-15.260913 98.04743988 -23.81749783 95.63645464 -33.75 86.5 C-34.92820008 85.17389821 -36.0773769 83.82109245 -37.1875 82.4375 C-37.65414062 81.89222656 -38.12078125 81.34695313 -38.6015625 80.78515625 C-46.39904379 70.23702971 -48.63393572 54.10395114 -47.1875 41.4375 C-44.80376464 28.21376136 -40.05607065 15.88656552 -29.1875 7.4375 C-19.59862176 1.61886181 -11.09011417 0.05415682 0 0 Z M-14.0625 24.625 C-15.114375 26.0171875 -15.114375 26.0171875 -16.1875 27.4375 C-16.909375 28.38625 -17.63125 29.335 -18.375 30.3125 C-23.62040978 40.20384417 -23.04653426 53.95831245 -20.1875 64.4375 C-18.03446121 69.19972987 -15.58964565 73.03409591 -11.0078125 75.7109375 C-5.06573607 77.95206667 0.75121961 78.11098169 6.9375 76.75 C13.83163283 73.60267849 16.35778629 70.13938753 18.98779297 63.24609375 C20.34320288 58.63015662 20.39284802 54.21820723 20.3125 49.4375 C20.32796875 48.51710938 20.3434375 47.59671875 20.359375 46.6484375 C20.31093734 38.05075296 18.04526775 29.67026775 11.8125 23.4375 C4.08253631 18.97417368 -6.93102108 19.19887474 -14.0625 24.625 Z " fill="#020202" transform="translate(239.1875,422.5625)"/>
<path d="M0 0 C1.1859375 -0.01998047 2.371875 -0.03996094 3.59375 -0.06054688 C10.78584894 -0.05662106 22.76822464 -0.04427536 28.25 5.4375 C28.33685603 6.99922745 28.35702219 8.56479344 28.34765625 10.12890625 C28.34282227 11.54526367 28.34282227 11.54526367 28.33789062 12.99023438 C28.32532227 14.48006836 28.32532227 14.48006836 28.3125 16 C28.30798828 16.99708984 28.30347656 17.99417969 28.29882812 19.02148438 C28.28700007 21.49354849 28.27051849 23.96549518 28.25 26.4375 C27.19683594 26.14875 26.14367187 25.86 25.05859375 25.5625 C12.99159466 22.39787034 -1.12674441 19.12051326 -12.75 25.4375 C-18.0741879 29.71999896 -20.70391395 34.75002135 -21.75 41.4375 C-22.22853921 50.08801656 -22.53574887 58.43943901 -18.75 66.4375 C-18.37875 67.365625 -18.0075 68.29375 -17.625 69.25 C-13.56502476 73.98663777 -8.4498496 75.36764637 -2.37890625 75.90625 C1.83269365 76.21237204 6.0211103 76.30430662 10.25 76.4375 C10.25 71.1575 10.25 65.8775 10.25 60.4375 C4.97 60.4375 -0.31 60.4375 -5.75 60.4375 C-5.75 54.1675 -5.75 47.8975 -5.75 41.4375 C-2.58685847 39.85592923 0.81289543 40.2956065 4.28515625 40.3046875 C5.47594032 40.30325241 5.47594032 40.30325241 6.69078064 40.30178833 C8.36945678 40.30110749 10.04813555 40.3029551 11.72680664 40.30712891 C14.30556097 40.31248559 16.88414168 40.30717708 19.46289062 40.30078125 C21.09114622 40.30144191 22.71940171 40.30272282 24.34765625 40.3046875 C25.12367691 40.30266327 25.89969757 40.30063904 26.69923401 40.29855347 C32.13504417 40.32254417 32.13504417 40.32254417 33.25 41.4375 C33.36917672 42.95550844 33.42008262 44.47895593 33.44287109 46.00146484 C33.45893402 46.97272308 33.47499695 47.94398132 33.49154663 48.94467163 C33.53580463 53.3908433 33.5770564 57.83686296 33.60009766 62.28320312 C33.61667466 64.63258762 33.64398727 66.98192133 33.68212891 69.33105469 C33.73671746 72.70795001 33.75874398 76.08366121 33.7734375 79.4609375 C33.79610687 80.51413177 33.81877625 81.56732605 33.84213257 82.6524353 C33.8342998 85.33907359 33.786679 87.80508326 33.25 90.4375 C30.94848633 92.48925781 30.94848633 92.48925781 28.25 93.4375 C27.64583252 93.81567871 27.04166504 94.19385742 26.41918945 94.58349609 C19.3217451 98.39142848 11.69110179 98.11194728 3.84936523 98.06884766 C1.45175051 98.06253751 -0.9408859 98.10949625 -3.33789062 98.16015625 C-16.77346619 98.27118472 -26.54068735 94.54682615 -36.484375 85.1484375 C-44.64245384 75.3868742 -47.01704778 64.71971705 -47.1550293 52.30834961 C-47.17638723 50.87222927 -47.21021885 49.43623088 -47.25756836 48.00073242 C-47.69038975 34.72497601 -45.21435934 24.40971501 -36.4375 13.9375 C-25.6021733 2.88437779 -15.23205322 -0.08988873 0 0 Z " fill="#020202" transform="translate(145.75,422.5625)"/>
<path d="M0 0 C7 4.66666667 14 9.33333333 21 14 C18 16 18 16 15.125 17.5 C10.66434789 20.53680306 8.67686041 24.9963563 7 30 C6.20976948 34.35444267 6 38.57925524 6 43 C6 44.03769531 6 45.07539063 6 46.14453125 C6.29252326 53.26564432 7.84930445 59.1290964 12 65 C17.30255118 69.43682854 21.96541709 70.30719846 28.6875 70.21875 C34.29110434 69.68867932 38.3082777 67.2127315 42 63 C47.69711291 51.67811848 47.82899801 40.18201186 45 28 C44.45859375 26.93265625 43.9171875 25.8653125 43.359375 24.765625 C42 22 42 22 43 19 C45.23128541 17.52513203 47.41023035 16.21395328 49.75 14.9375 C50.37132812 14.58623047 50.99265625 14.23496094 51.6328125 13.87304688 C55.00831064 11.98946194 58.3723944 10.33612191 62 9 C70.33591902 19.06059192 72.55642862 29.00423125 72.375 41.9375 C72.36412354 42.99219482 72.35324707 44.04688965 72.34204102 45.13354492 C72.0480136 59.474316 68.60033199 70.1263265 58.6875 80.8125 C49.63332847 89.3328655 41.09049855 91.24805454 29.07836914 91.35009766 C27.66348709 91.3665554 26.24868461 91.39370955 24.83422852 91.43212891 C13.22023199 91.74532145 5.17252936 89.80552674 -3.9375 82.375 C-5.00291016 81.52035156 -5.00291016 81.52035156 -6.08984375 80.6484375 C-9.48488982 77.71856135 -11.89615347 75.00732672 -14 71 C-14 70.01 -14 69.02 -14 68 C-14.66 68 -15.32 68 -16 68 C-16.48509793 66.62708132 -16.96275513 65.25153297 -17.4375 63.875 C-17.70433594 63.10929687 -17.97117187 62.34359375 -18.24609375 61.5546875 C-22.20132465 48.15198796 -22.08011473 29.38716853 -15.3828125 17.01171875 C-11.10660657 10.08353103 -7.01743689 4.30615446 0 0 Z " fill="#020202" transform="translate(409,429)"/>
<path d="M0 0 C2.82768624 2.41443933 2.98297087 2.81989806 3.36076355 6.81547546 C3.36947531 8.4416715 3.36145228 10.06800643 3.34057617 11.6940918 C3.34101425 12.5821048 3.34145233 13.4701178 3.34190369 14.38504028 C3.3398119 17.32332261 3.3164624 20.26103597 3.29296875 23.19921875 C3.28737419 25.23517037 3.28310343 27.27112603 3.28010559 29.30708313 C3.26864586 34.66821423 3.23916887 40.02910187 3.20599365 45.39013672 C3.17531714 50.85966702 3.16160542 56.32923661 3.14648438 61.79882812 C3.11430033 72.5326591 3.06309027 83.26630932 3 94 C11.19966137 95.22702218 19.37013423 96.31545449 27.6328125 97 C29.52866719 97.16642361 31.42449995 97.33309708 33.3203125 97.5 C36.24518422 97.75321852 39.17023132 98.00380645 42.09570312 98.25 C44.96290803 98.49288698 47.82909468 98.74576595 50.6953125 99 C51.57132111 99.07089844 52.44732971 99.14179688 53.34988403 99.21484375 C54.16528656 99.28832031 54.98068909 99.36179687 55.82080078 99.4375 C56.53358185 99.49808594 57.24636292 99.55867188 57.98074341 99.62109375 C60.28714781 100.05388226 61.9855815 100.8047045 64 102 C69.23314739 109.73155325 67.11800382 123.136602 67 132 C67.78117187 131.97679687 68.56234375 131.95359375 69.3671875 131.9296875 C79.24005573 131.77576751 88.97385888 132.44693617 98.81005859 133.28857422 C104.56665105 133.77398657 110.22279382 134.11231507 116 134 C116.14248169 132.94087402 116.14248169 132.94087402 116.2878418 131.86035156 C116.73208687 128.65335034 117.20938046 125.4521186 117.6875 122.25 C117.83638672 121.13882813 117.98527344 120.02765625 118.13867188 118.8828125 C118.38520508 117.27792969 118.38520508 117.27792969 118.63671875 115.640625 C118.77811279 114.65610352 118.91950684 113.67158203 119.06518555 112.65722656 C120.31032242 109.11790306 121.8854405 108.05136023 125 106 C127.95935059 105.49206543 127.95935059 105.49206543 131.27148438 105.48242188 C132.51627563 105.46981323 133.76106689 105.45720459 135.0435791 105.44421387 C136.39364185 105.45137395 137.74369942 105.45957801 139.09375 105.46875 C140.48710399 105.46605318 141.88045614 105.46216917 143.27380371 105.45715332 C146.18906636 105.45126705 149.1038376 105.45979221 152.01904297 105.47851562 C155.74838121 105.50130574 159.47656793 105.48817783 163.20586395 105.46422577 C166.08161024 105.44974357 168.95708533 105.45438463 171.83283997 105.46473694 C173.20750567 105.46739759 174.58219633 105.46415775 175.95683289 105.45481873 C177.88072208 105.44461534 179.80469807 105.46293529 181.72851562 105.48242188 C182.82151978 105.48560425 183.91452393 105.48878662 185.04064941 105.49206543 C188.70258324 106.1205894 190.37548361 107.4151339 193 110 C193.93481445 112.65722656 193.93481445 112.65722656 194.36328125 115.640625 C194.52763672 116.71054687 194.69199219 117.78046875 194.86132812 118.8828125 C195.01021484 119.99398437 195.15910156 121.10515625 195.3125 122.25 C195.48072266 123.37664062 195.64894531 124.50328125 195.82226562 125.6640625 C196.23402611 128.44050464 196.62578335 131.21829113 197 134 C200.3 134 203.6 134 207 134 C207 138.62 207 143.24 207 148 C204.10425486 148.30370743 201.21338331 148.5687095 198.3125 148.8125 C197.49587891 148.90208984 196.67925781 148.99167969 195.83789062 149.08398438 C191.6893526 149.40310268 189.63484885 149.39761586 186.03125 147.140625 C183.25328114 142.84545777 182.75570751 138.95726953 182.1875 133.9375 C182.06697266 133.03966797 181.94644531 132.14183594 181.82226562 131.21679688 C181.32877416 127.42396246 181 123.83422891 181 120 C164.83 120 148.66 120 132 120 C131.34 125.61 130.68 131.22 130 137 C128.66108826 145.22474354 128.66108826 145.22474354 126.515625 147.74072266 C122.58471522 149.70846651 118.92996289 149.10286988 114.625 148.7734375 C113.69888916 148.71529877 112.77277832 148.65716003 111.81860352 148.59725952 C109.86219262 148.47303871 107.90620711 148.34195295 105.95068359 148.20446777 C103.1098456 148.00761176 100.26876723 147.83541926 97.42578125 147.67285156 C92.86401445 147.40978171 88.3049633 147.11666537 83.74609375 146.80761719 C81.88707392 146.68399105 80.02767294 146.56598981 78.16796875 146.453125 C75.42348537 146.2861025 72.68062089 146.10199721 69.9375 145.9140625 C69.11048584 145.86706207 68.28347168 145.82006165 67.43139648 145.77163696 C62.89020215 145.43895459 59.69149244 144.91254567 56 142 C50.95357384 134.43036076 52.86988884 121.83310211 53 113 C51.72261963 113.01804687 50.44523926 113.03609375 49.12915039 113.0546875 C44.02410013 113.05269468 39.00981444 112.63419572 33.93359375 112.125 C33.01409439 112.03621582 32.09459503 111.94743164 31.14723206 111.85595703 C28.24357925 111.57466485 25.34055043 111.28743551 22.4375 111 C20.45511653 110.80689703 18.47269494 110.61418496 16.49023438 110.421875 C11.65970402 109.9524324 6.82972359 109.47766846 2 109 C3.16857111 127.68763716 4.89896154 145.38730326 18 160 C17.34 160.33 16.68 160.66 16 161 C5.18036532 146.3451634 0.54475056 133.10851914 0.56762695 114.77416992 C0.5574353 113.52381454 0.54724365 112.27345917 0.53674316 110.98521423 C0.51196618 107.60166799 0.49993245 104.21855371 0.49388909 100.83495498 C0.48442199 97.28218209 0.45821288 93.72953069 0.43388367 90.17683411 C0.39044186 83.4695073 0.3617586 76.76220436 0.33856028 70.0547803 C0.31138793 62.41005528 0.26748459 54.76545383 0.22227156 47.12081754 C0.12974552 31.41394218 0.05791924 15.70704346 0 0 Z " fill="#EFEFEF" transform="translate(166,210)"/>
<path d="M0 0 C4.06082852 3.15517612 6.66215548 7.3931471 9.1875 11.8125 C9.72632813 12.7303125 10.26515625 13.648125 10.8203125 14.59375 C12.43101687 18.3858083 12.70645059 21.81861023 12.8125 25.875 C12.934578 32.42554994 12.934578 32.42554994 14.1875 38.8125 C17.07538641 41.04334477 17.07538641 41.04334477 20.1875 42.8125 C22.1875 44.8125 22.1875 44.8125 22.41455078 47.51806641 C22.40407715 48.63874512 22.39360352 49.75942383 22.3828125 50.9140625 C22.37636719 52.12578125 22.36992187 53.3375 22.36328125 54.5859375 C22.33814453 56.49246094 22.33814453 56.49246094 22.3125 58.4375 C22.30347656 59.71625 22.29445313 60.995 22.28515625 62.3125 C22.26152303 65.47935167 22.22857629 68.64583424 22.1875 71.8125 C19.28149739 73.06914978 17.39145416 73.8125 14.1875 73.8125 C14.29578125 72.89984375 14.29578125 72.89984375 14.40625 71.96875 C15.29574048 63.56800659 15.28274389 55.246876 15.1875 46.8125 C14.08535156 46.57015625 12.98320312 46.3278125 11.84765625 46.078125 C11.12263916 45.91779785 10.39762207 45.7574707 9.65063477 45.59228516 C8.03317392 45.23533509 6.41515773 44.88089335 4.79663086 44.52880859 C0.70312161 43.63008803 -3.36194418 42.68653635 -7.40625 41.5859375 C-8.137229 41.39354492 -8.86820801 41.20115234 -9.62133789 41.00292969 C-10.99017325 40.63933034 -12.35460908 40.25850142 -13.71264648 39.85644531 C-23.36029302 37.34526431 -33.55323934 41.41549614 -42.875 43.9375 C-44.90697163 44.4839339 -46.93949687 45.02831466 -48.97265625 45.5703125 C-49.85574463 45.8089502 -50.73883301 46.04758789 -51.64868164 46.29345703 C-53.8125 46.8125 -53.8125 46.8125 -55.8125 46.8125 C-56.15589086 62.91371604 -56.40111486 78.00460146 -44.75 90.5 C-39.70100647 95.26990344 -33.99465195 98.69552115 -27.8125 101.8125 C-26.61367188 102.43318359 -26.61367188 102.43318359 -25.390625 103.06640625 C-19.57275258 104.75006327 -14.61537906 102.56448475 -9.5 99.8125 C-2.49872738 95.8879112 4.71054729 91.1441168 8.7734375 84.0390625 C9.24007812 83.30429687 9.70671875 82.56953125 10.1875 81.8125 C11.1775 81.8125 12.1675 81.8125 13.1875 81.8125 C13.6825 79.8325 13.6825 79.8325 14.1875 77.8125 C15.8375 78.1425 17.4875 78.4725 19.1875 78.8125 C17.75771202 84.53165193 14.91450507 88.38354779 11.1875 92.8125 C10.63320313 93.47507812 10.07890625 94.13765625 9.5078125 94.8203125 C2.1997045 102.81845645 -7.80355412 107.92541532 -17.8125 111.8125 C-29.58276596 112.22549179 -41.53374808 103.47801104 -49.8125 95.8125 C-59.00701791 87.11498305 -63.65754937 75.00630635 -64.11328125 62.515625 C-64.12766558 60.69796938 -64.13148253 58.88020097 -64.125 57.0625 C-64.14111328 56.14339844 -64.15722656 55.22429687 -64.17382812 54.27734375 C-64.17741148 49.32514409 -64.10665608 45.79594421 -60.8125 41.8125 C-58.16832586 40.07726072 -57.02784057 39.8125 -53.8125 39.8125 C-53.85890625 38.55695313 -53.9053125 37.30140625 -53.953125 36.0078125 C-54.41405411 18.39574649 -54.41405411 18.39574649 -49.8125 10.8125 C-49.38839844 10.09964844 -48.96429688 9.38679688 -48.52734375 8.65234375 C-37.28256315 -8.10519837 -16.46250812 -10.39737355 0 0 Z " fill="#363636" transform="translate(466.8125,307.1875)"/>
<path d="M0 0 C8.03964224 6.67119249 13.60504621 14.22605899 15.078125 24.703125 C15.73976352 35.09569095 12.91020038 44.26077888 6.578125 52.453125 C0.54193553 59.13113715 -7.8133958 63.31821466 -16.73046875 64.078125 C-27.6121554 64.48827102 -36.37098081 61.90178682 -44.7890625 54.88671875 C-52.50886936 46.97166386 -55.23615787 37.74345617 -55.15600586 26.93896484 C-54.88046845 16.86052127 -51.32164715 10.33512884 -44.4375 3.09765625 C-31.78792461 -7.77424212 -13.74824648 -9.90258313 0 0 Z " fill="#F9F9F9" transform="translate(423.796875,221.171875)"/>
<path d="M0 0 C7.71182513 6.32140313 12.20272481 13.80326274 13.9765625 23.66015625 C14.791907 33.7908116 11.27747677 43.75670414 4.7890625 51.47265625 C3.9021875 52.21515625 3.0153125 52.95765625 2.1015625 53.72265625 C1.51503906 54.22539062 0.92851562 54.728125 0.32421875 55.24609375 C-7.40167101 61.51859831 -14.70947961 63.34376346 -24.625 63.06640625 C-34.585897 62.0203932 -42.77272104 57.38657294 -49.4609375 49.99609375 C-55.32460785 42.35238061 -57.34577784 33.52028443 -56.71875 23.9921875 C-55.30595167 13.77102408 -49.97387768 5.12496083 -41.8984375 -1.27734375 C-28.5114881 -9.86977203 -12.87106031 -9.25533842 0 0 Z " fill="#F9F9F9" transform="translate(262.8984375,222.27734375)"/>
<path d="M0 0 C1.07378906 0.26876953 2.14757812 0.53753906 3.25390625 0.81445312 C11.09287309 2.79643654 11.09287309 2.79643654 13.375 3.9375 C16.52017763 13.3730329 14.84326532 26.84963793 11.15234375 35.953125 C4.66469249 48.61702025 -5.88121787 55.37375151 -18.45703125 61.40625 C-25.56649049 63.14838776 -32.76562898 58.46492991 -38.625 54.9375 C-47.88204158 47.91044603 -55.85393419 39.50472804 -58.0234375 27.78515625 C-59.06848315 19.74960254 -58.85657814 11.93298349 -57.625 3.9375 C-51.49034464 2.16072587 -45.34881854 0.41024961 -39.20166016 -1.32275391 C-37.1197519 -1.92045923 -35.04823528 -2.55428835 -32.98046875 -3.19921875 C-21.76501483 -6.51731154 -11.03963612 -2.82521198 0 0 Z " fill="#000000" transform="translate(468.625,350.0625)"/>
<path d="M0 0 C0.99 0.33 1.98 0.66 3 1 C2.34 1 1.68 1 1 1 C0.690625 1.639375 0.38125 2.27875 0.0625 2.9375 C-1 5 -1 5 -2 6 C19.45 6.33 40.9 6.66 63 7 C63 13.6 63 20.2 63 27 C50.625 27.495 50.625 27.495 38 28 C38 52.75 38 77.5 38 103 C30.08 103 22.16 103 14 103 C14 77.92 14 52.84 14 27 C5.75 27 -2.5 27 -11 27 C-11.0825 24.256875 -11.165 21.51375 -11.25 18.6875 C-11.28641602 17.82729248 -11.32283203 16.96708496 -11.36035156 16.08081055 C-11.44232822 10.47797037 -11.44232822 10.47797037 -9.109375 7.95703125 C-7 7 -7 7 -5 7 C-4.731875 6.401875 -4.46375 5.80375 -4.1875 5.1875 C-3.01506533 3.02775192 -1.80630718 1.64209744 0 0 Z " fill="#000000" transform="translate(495,417)"/>
<path d="M0 0 C5.75312677 4.04897118 8.23731958 9.32270466 9.44140625 16.109375 C10.25527878 24.48287117 8.02029723 29.82833221 2.75390625 36.234375 C-1.14018752 40.52499528 -4.91132579 41.59626356 -10.62109375 42.234375 C-17.93763439 42.52871859 -23.20501263 41.22038716 -29.30859375 37.234375 C-31.24609375 35.234375 -31.24609375 35.234375 -31.24609375 32.234375 C-31.90609375 32.234375 -32.56609375 32.234375 -33.24609375 32.234375 C-36.61604724 26.50684089 -36.90614893 19.00218999 -35.77734375 12.55859375 C-34.40999805 8.13701391 -32.61787094 4.50078415 -29.24609375 1.234375 C-28.25609375 1.234375 -27.26609375 1.234375 -26.24609375 1.234375 C-26.24609375 0.574375 -26.24609375 -0.085625 -26.24609375 -0.765625 C-16.99851693 -4.24822308 -8.86104944 -4.94070636 0 0 Z " fill="#060606" transform="translate(258.24609375,232.765625)"/>
<path d="M0 0 C0.92683594 0.07863281 1.85367187 0.15726563 2.80859375 0.23828125 C5.63083467 0.69864679 7.95678984 1.52888115 10.5625 2.6875 C10.5625 3.3475 10.5625 4.0075 10.5625 4.6875 C11.16707031 4.78546875 11.77164063 4.8834375 12.39453125 4.984375 C15.77660794 6.08126474 16.77832071 8.12410877 18.51171875 11.11328125 C21.45803136 18.33119949 21.48992101 26.60752583 18.57421875 33.82421875 C15.63045536 39.24574437 10.04799125 43.58681855 4.1875 45.4375 C-4.50268776 46.26513693 -10.4408027 45.45444429 -17.6875 40.4375 C-22.90941138 35.21558862 -25.07964311 30.6079141 -25.53515625 23.30859375 C-25.25834002 15.87884602 -22.8598981 9.7484049 -17.4375 4.6875 C-11.69548117 1.13019351 -6.77865603 -0.62991672 0 0 Z " fill="#050505" transform="translate(402.4375,229.3125)"/>
<path d="M0 0 C4.82625 -0.0825 9.6525 -0.165 14.625 -0.25 C16.13658691 -0.28641602 17.64817383 -0.32283203 19.20556641 -0.36035156 C20.40874512 -0.3703418 21.61192383 -0.38033203 22.8515625 -0.390625 C24.68968506 -0.4220459 24.68968506 -0.4220459 26.56494141 -0.45410156 C31.34006905 0.17715199 34.38286326 2.31140838 37.6796875 5.75390625 C41.43410408 11.43460846 41.55316744 16.31282026 41 23 C40.34 23 39.68 23 39 23 C38.7525 23.7425 38.505 24.485 38.25 25.25 C36.89534961 28.23023087 35.4898459 29.89919252 33 32 C32.34 32 31.68 32 31 32 C32.45475642 34.46051394 33.91361012 36.91843052 35.375 39.375 C35.99375 40.42300781 35.99375 40.42300781 36.625 41.4921875 C37.02460938 42.1625 37.42421875 42.8328125 37.8359375 43.5234375 C38.38580322 44.450354 38.38580322 44.450354 38.94677734 45.39599609 C40.03259894 47.16790733 40.03259894 47.16790733 42 49 C42 50.32 42 51.64 42 53 C37.50096581 53.66978103 33.47205698 53.94038581 29 53 C25.6978729 49.81095945 23.91067565 46.13794581 22 42 C20.77788921 39.48157884 19.57475151 37.33672805 18 35 C16.02 34.67 14.04 34.34 12 34 C12 40.27 12 46.54 12 53 C8.04 53 4.08 53 0 53 C0 35.51 0 18.02 0 0 Z M12 10 C12 14.29 12 18.58 12 23 C14.84625 23.0928125 14.84625 23.0928125 17.75 23.1875 C18.81734375 23.22230469 19.8846875 23.25710938 20.984375 23.29296875 C24.33563062 22.9673934 25.66789429 22.39347691 28 20 C28.51020728 15.91834173 28.31361802 14.47042703 26 11 C22.94517539 9.83783846 19.99027838 9.89486476 16.75 9.9375 C14.39875 9.9684375 14.39875 9.9684375 12 10 Z " fill="#030303" transform="translate(449,529)"/>
<path d="M0 0 C4.29 0 8.58 0 13 0 C13.01458252 1.03406982 13.02916504 2.06813965 13.04418945 3.13354492 C13.10230882 6.98236082 13.17954023 10.83059999 13.26245117 14.67895508 C13.29563655 16.34227108 13.32368834 18.00569796 13.34643555 19.66918945 C13.38009999 22.06509499 13.4324194 24.45999035 13.48828125 26.85546875 C13.49467117 27.5952446 13.5010611 28.33502045 13.50764465 29.09721375 C13.63290819 33.5292359 14.1892747 36.5136395 17 40 C21.59682513 41.53227504 25.42147572 41.72063065 29.875 39.6875 C32.26971972 38.10128715 32.26971972 38.10128715 33 35 C33.15346953 32.34393699 33.25717898 29.70904905 33.31640625 27.05078125 C33.33718735 26.27816452 33.35796844 25.50554779 33.37937927 24.70951843 C33.44471038 22.2439352 33.50368315 19.77824639 33.5625 17.3125 C33.60570087 15.63996309 33.64931566 13.96743681 33.69335938 12.29492188 C33.8003749 8.1967225 33.90168857 4.09841704 34 0 C38.29 0 42.58 0 47 0 C47.0500364 4.3558609 47.08601534 8.7115624 47.10986328 13.06762695 C47.11982183 14.54454468 47.13339361 16.02144322 47.15087891 17.49829102 C47.41366808 40.29138698 47.41366808 40.29138698 42.875 46.4375 C35.42276719 53.07970751 28.76815237 53.78948783 19.01171875 53.37109375 C13.0009117 52.92661804 9.27031639 51.55661735 5.234375 47.01171875 C-0.02253082 39.90015691 -0.13243735 32.84446191 -0.09765625 24.21875 C-0.0962413 23.51979614 -0.09482635 22.82084229 -0.09336853 22.10070801 C-0.0878367 19.90042571 -0.07529777 17.70025077 -0.0625 15.5 C-0.05747616 13.99479315 -0.05291482 12.48958468 -0.04882812 10.984375 C-0.03788977 7.32288265 -0.02067359 3.66145183 0 0 Z " fill="#050505" transform="translate(392,529)"/>
<path d="M0 0 C11.22 0 22.44 0 34 0 C34 3.63 34 7.26 34 11 C23.605 11.495 23.605 11.495 13 12 C13 14.64 13 17.28 13 20 C19.27 20 25.54 20 32 20 C33 24 33 24 33 32 C23.1 32.495 23.1 32.495 13 33 C13 35.64 13 38.28 13 41 C13.63091553 40.99476318 14.26183105 40.98952637 14.91186523 40.98413086 C17.75373347 40.96342174 20.59558588 40.95035934 23.4375 40.9375 C24.92733398 40.92493164 24.92733398 40.92493164 26.44726562 40.91210938 C27.39150391 40.90888672 28.33574219 40.90566406 29.30859375 40.90234375 C30.18314209 40.89710693 31.05769043 40.89187012 31.95874023 40.88647461 C34 41 34 41 35 42 C35 45.63 35 49.26 35 53 C23.45 53 11.9 53 0 53 C0 35.51 0 18.02 0 0 Z " fill="#040404" transform="translate(302,529)"/>
<path d="M0 0 C11.22 0 22.44 0 34 0 C34 3.63 34 7.26 34 11 C27.07 11 20.14 11 13 11 C13 14.3 13 17.6 13 21 C14.35996094 20.91621094 15.71992187 20.83242188 17.12109375 20.74609375 C18.8932132 20.64295452 20.66534953 20.54010485 22.4375 20.4375 C23.33533203 20.38142578 24.23316406 20.32535156 25.15820312 20.26757812 C26.01220703 20.21923828 26.86621094 20.17089844 27.74609375 20.12109375 C28.53685303 20.0739624 29.3276123 20.02683105 30.14233398 19.97827148 C32 20 32 20 33 21 C33.14310287 24.6691577 33.04221662 28.32715441 33 32 C26.4 32 19.8 32 13 32 C13 34.97 13 37.94 13 41 C19.93 41 26.86 41 34 41 C34 44.96 34 48.92 34 53 C22.78 53 11.56 53 0 53 C0 35.51 0 18.02 0 0 Z " fill="#030303" transform="translate(498,529)"/>
<path d="M0 0 C1.64452148 0.01546875 1.64452148 0.01546875 3.32226562 0.03125 C11.37777297 0.19027297 11.37777297 0.19027297 13.6875 2.5 C13.8828125 5.1015625 13.8828125 5.1015625 13.8125 8.125 C13.79445313 9.12789062 13.77640625 10.13078125 13.7578125 11.1640625 C13.73460937 11.93492187 13.71140625 12.70578125 13.6875 13.5 C12.800625 13.17 11.91375 12.84 11 12.5 C5.4052017 10.87347101 -0.54352215 11.14048399 -6.3125 11.5 C-7.60883621 12.56645115 -7.60883621 12.56645115 -7.375 15.0625 C-7.354375 15.866875 -7.33375 16.67125 -7.3125 17.5 C-3.14966216 19.35015015 0.98874781 20.93569954 5.3125 22.375 C9.98242843 24.04924632 12.66469862 25.57035821 15.6875 29.5 C17.48315011 34.88695034 17.51224005 40.97079718 15.75 46.375 C10.27333674 52.01762275 5.31427757 53.7677528 -2.49023438 53.93823242 C-8.78378021 53.93644041 -13.37200202 53.87619919 -19.3125 51.5 C-19.3125 47.21 -19.3125 42.92 -19.3125 38.5 C-16.3828125 39.54166667 -13.453125 40.58333333 -10.5234375 41.625 C-6.49505667 42.72275828 -3.04412624 42.96800709 1 41.875 C3.50453262 39.83426971 3.26807409 37.5979379 3.6875 34.5 C2.90246094 34.32984375 2.11742187 34.1596875 1.30859375 33.984375 C-4.9234188 32.54680646 -9.98485344 31.05176437 -15.3125 27.5 C-16.02019531 27.14550781 -16.72789062 26.79101562 -17.45703125 26.42578125 C-20.46971327 23.29893444 -20.01002372 19.86739132 -20 15.6875 C-20.04060547 14.89279297 -20.08121094 14.09808594 -20.12304688 13.27929688 C-20.14818979 8.93675635 -19.62021197 6.13365826 -16.5390625 2.95703125 C-11.50837221 -0.73427373 -5.99155694 -0.22947914 0 0 Z " fill="#050505" transform="translate(277.3125,528.5)"/>
<path d="M0 0 C1.20849609 0.00644531 2.41699219 0.01289062 3.66210938 0.01953125 C5.55606445 0.04466797 5.55606445 0.04466797 7.48828125 0.0703125 C8.76251953 0.07933594 10.03675781 0.08835937 11.34960938 0.09765625 C14.50018752 0.12125609 17.65039108 0.15418056 20.80078125 0.1953125 C21.82656404 4.96502979 21.5338841 8.38941604 20.80078125 13.1953125 C18.03801948 12.67262784 15.47469365 12.08661663 12.80078125 11.1953125 C11.01198323 11.0762439 9.21849565 11.02009137 7.42578125 11.0078125 C6.48992187 10.99363281 5.5540625 10.97945312 4.58984375 10.96484375 C1.58953413 11.21276849 -0.51938595 11.83685054 -3.19921875 13.1953125 C-6.57840171 18.02271673 -7.35093645 23.40326636 -7.19921875 29.1953125 C-6.3940315 33.14139548 -5.14778965 36.27638444 -2.19921875 39.1328125 C5.19700971 43.06205887 13.06047761 40.91537998 20.80078125 39.1953125 C21.29578125 45.1353125 21.29578125 45.1353125 21.80078125 51.1953125 C13.3058284 54.59329364 1.09371211 55.15368115 -7.51171875 51.5078125 C-9.48046875 50.37890625 -9.48046875 50.37890625 -11.19921875 49.1953125 C-12.83890625 48.1434375 -12.83890625 48.1434375 -14.51171875 47.0703125 C-20.16394396 41.02374599 -21.44845107 34.79380713 -21.63671875 26.6328125 C-21.18397937 13.39684344 -21.18397937 13.39684344 -16.1015625 7.9453125 C-10.86126911 3.17366324 -7.27639411 -0.06832295 0 0 Z " fill="#080808" transform="translate(364.19921875,528.8046875)"/>
<path d="M0 0 C2.64233769 2.19257809 4.46669809 3.93339618 6 7 C6.28501159 12.34955925 6.31379948 17.70020636 6.35009766 23.05664062 C6.36663423 24.84518466 6.39389412 26.63366323 6.43212891 28.421875 C6.48707034 31.00555573 6.50879843 33.58768772 6.5234375 36.171875 C6.54610687 36.96583679 6.56877625 37.75979858 6.59213257 38.57781982 C6.57657175 42.69390408 6.2264647 45.23381294 3.59228516 48.48925781 C-0.19221211 52.15470986 -2.56546598 52.39231957 -7.671875 52.359375 C-11.59004236 51.75455722 -13.30358816 49.83123243 -16 47 C-17.61222277 43.77555446 -17.20563786 40.24748105 -17.23828125 36.703125 C-17.246353 35.87673523 -17.25442474 35.05034546 -17.26274109 34.19891357 C-17.27658371 32.44708352 -17.28730507 30.69522648 -17.29516602 28.94335938 C-17.31234417 26.27421304 -17.35622289 23.60631669 -17.40039062 20.9375 C-17.41052082 19.2343841 -17.4190359 17.53125767 -17.42578125 15.828125 C-17.44328934 15.03416321 -17.46079742 14.24020142 -17.47883606 13.42218018 C-17.45839421 8.15458581 -16.48412622 5.18304379 -13 1 C-8.89605474 -1.62196503 -4.5407341 -1.44936563 0 0 Z " fill="#F8F8F8" transform="translate(328,236)"/>
<path d="M0 0 C6.05084275 7.19559678 6.33066948 15.03518286 6 24 C4.28103516 23.566875 4.28103516 23.566875 2.52734375 23.125 C0.99749932 22.74957805 -0.53245451 22.37460171 -2.0625 22 C-2.81466797 21.80921875 -3.56683594 21.6184375 -4.34179688 21.421875 C-11.86809306 19.59731835 -17.77558832 19.67031324 -25.25 22 C-31.72222222 24 -31.72222222 24 -35 24 C-35.52374938 7.76376929 -35.52374938 7.76376929 -30.75 1.5625 C-21.86284073 -6.71871659 -9.6496529 -7.00072858 0 0 Z " fill="#000000" transform="translate(461,319)"/>
<path d="M0 0 C0.66 2.31 1.32 4.62 2 7 C2.99 5.02 3.98 3.04 5 1 C5.66 1 6.32 1 7 1 C6 8 5 15 4 22 C3.01 22 2.02 22 1 22 C-0.11517502 16.01270113 -1.19500136 10.03748977 -2 4 C-4.15352991 4.79302402 -4.15352991 4.79302402 -4.66796875 6.78515625 C-5.91405778 12.24733599 -6.00286629 16.48423539 -5 22 C-5.99 21.67 -6.98 21.34 -8 21 C-8.70491267 18.67793475 -9.37212429 16.34406932 -10 14 C-10.66 13.67 -11.32 13.34 -12 13 C-12 15.97 -12 18.94 -12 22 C-16 23 -16 23 -19 22 C-20.2375 22.061875 -20.2375 22.061875 -21.5 22.125 C-24 22 -24 22 -25.6328125 20.99609375 C-27.77226243 17.87249685 -27.43308152 14.58695536 -27.375 10.9375 C-27.38660156 10.20466797 -27.39820313 9.47183594 -27.41015625 8.71679688 C-27.3984375 6.58984375 -27.3984375 6.58984375 -27 3 C-19.01979006 -2.32013996 -9.07680404 -1.51280067 0 0 Z " fill="#222222" transform="translate(178,116)"/>
<path d="M0 0 C3.03985194 2.06968643 4.69780336 3.51287443 5.4453125 7.19140625 C5.56401754 9.59320485 5.50681855 11.64818411 5 14 C3.68671343 15.35308313 2.35500919 16.68870078 1 18 C1.19234122 21.35278304 1.19234122 21.35278304 2 25 C2.1437784 27.69344872 2.09315822 30.29841149 2 33 C1 34 1 34 -1.72265625 34.09765625 C-2.82480469 34.08605469 -3.92695313 34.07445312 -5.0625 34.0625 C-6.71958984 34.04896484 -6.71958984 34.04896484 -8.41015625 34.03515625 C-9.26480469 34.02355469 -10.11945313 34.01195312 -11 34 C-11.88781148 30.41043129 -11.94409317 27.75231492 -11.3125 24.125 C-10.85482947 20.40298062 -10.92181877 18.45459653 -13 15.3125 C-15 12 -15 12 -15.0625 8.375 C-13.80557437 4.38241269 -12.19471883 2.64927903 -9 0 C-5.77509551 -1.61245225 -3.43772273 -0.81573082 0 0 Z " fill="#353535" transform="translate(451,359)"/>
<path d="M0 0 C0.66 0 1.32 0 2 0 C2.23074219 0.68707031 2.46148437 1.37414062 2.69921875 2.08203125 C4.5848703 7.56125751 4.5848703 7.56125751 8.1875 11.9375 C12.08998056 13.41177044 16.01210573 14.77496058 20 16 C20 17.32 20 18.64 20 20 C19.33613281 20.14695312 18.67226563 20.29390625 17.98828125 20.4453125 C11.86053399 22.00184976 8.47705856 23.41563323 5 29 C3.82804887 31.64403608 2.90284708 34.24394048 2 37 C0.35 37 -1.3 37 -3 37 C-2.773125 36.319375 -2.54625 35.63875 -2.3125 34.9375 C-1.88000893 30.87208394 -3.08562254 28.56470286 -5 25 C-8.3526637 21.26049049 -13.25617083 20.8615929 -18 20 C-18.33 21.32 -18.66 22.64 -19 24 C-19.66 24 -20.32 24 -21 24 C-19.125 18.25 -19.125 18.25 -18 16 C-16.109375 15.54296875 -16.109375 15.54296875 -13.75 15.1875 C-9.09815088 14.2143715 -6.91157962 12.90983549 -4 9 C-2.50014389 6.05949262 -1.19899419 3.07451583 0 0 Z " fill="#414141" transform="translate(499,365)"/>
<path d="M0 0 C2.5 0.25 2.5 0.25 4.5 2.25 C4.69856972 5.12342061 4.77828946 7.87861988 4.75 10.75 C4.75773438 11.53503906 4.76546875 12.32007813 4.7734375 13.12890625 C4.75330787 18.99669213 4.75330787 18.99669213 2.5 21.25 C0 21.5 0 21.5 -2.5 21.25 C-5.12723824 18.62276176 -4.76115971 16.70788327 -4.7734375 13.12890625 C-4.76570312 12.34386719 -4.75796875 11.55882812 -4.75 10.75 C-4.75773438 9.96496094 -4.76546875 9.17992188 -4.7734375 8.37109375 C-4.74634845 0.47463484 -4.74634845 0.47463484 0 0 Z " fill="#5A5A5A" transform="translate(223.5,116.75)"/>
<path d="M0 0 C0.99 0 1.98 0 3 0 C3.99 2.64 4.98 5.28 6 8 C6.33 5.36 6.66 2.72 7 0 C7.99 0 8.98 0 10 0 C10 6.93 10 13.86 10 21 C8.68 20.67 7.36 20.34 6 20 C5.34 17.69 4.68 15.38 4 13 C3.67 15.64 3.34 18.28 3 21 C2.01 21 1.02 21 0 21 C0 14.07 0 7.14 0 0 Z " fill="#545454" transform="translate(138,117)"/>
<path d="M0 0 C0.99 0 1.98 0 3 0 C3.99 2.64 4.98 5.28 6 8 C6.33 5.36 6.66 2.72 7 0 C7.99 0 8.98 0 10 0 C10 6.93 10 13.86 10 21 C9.01 21 8.02 21 7 21 C6.01 18.36 5.02 15.72 4 13 C3.67 15.64 3.34 18.28 3 21 C2.01 21 1.02 21 0 21 C0 14.07 0 7.14 0 0 Z " fill="#555555" transform="translate(232,117)"/>
<path d="M0 0 C2.31 0 4.62 0 7 0 C9 2 9 2 9.1875 5.9375 C9.16190316 8.67636155 8.88664156 10.34007532 8 13 C8.09268505 15.06618749 8.09268505 15.06618749 8.4375 17.1875 C8.623125 18.445625 8.80875 19.70375 9 21 C8.01 20.67 7.02 20.34 6 20 C5.29508733 17.67793475 4.62787571 15.34406932 4 13 C3.34 12.67 2.68 12.34 2 12 C2 14.97 2 17.94 2 21 C1.34 21 0.68 21 0 21 C0 14.07 0 7.14 0 0 Z " fill="#595959" transform="translate(164,117)"/>
<path d="M0 0 C30.2148368 12.42967359 30.2148368 12.42967359 32 16 C32.10196736 18.09744646 32.13842651 20.19818326 32.14526367 22.2980957 C32.14862228 22.94384552 32.1519809 23.58959534 32.15544128 24.25491333 C32.16495976 26.39522208 32.16689504 28.53545263 32.16796875 30.67578125 C32.17118144 32.16310153 32.17454552 33.65042148 32.17805481 35.13774109 C32.18404883 38.25907117 32.1858945 41.38037355 32.18530273 44.50170898 C32.18520126 48.49648675 32.19883674 52.49108618 32.21607494 56.48582172 C32.22720979 59.55965486 32.22922146 62.63344514 32.22869301 65.70729637 C32.22987153 67.17965495 32.23428614 68.6520147 32.24202538 70.12435341 C32.25185245 72.18760153 32.2489364 74.25046605 32.24291992 76.3137207 C32.24434494 77.48683304 32.24576996 78.65994537 32.24723816 79.86860657 C32.00128177 82.98376576 31.32851086 85.19125373 30 88 C29.67 88 29.34 88 29 88 C29.16153564 86.80616699 29.32307129 85.61233398 29.48950195 84.38232422 C30.20630255 77.89088826 30.16228973 71.40700937 30.16796875 64.8828125 C30.17118839 63.53522711 30.17455298 62.18764206 30.17805481 60.84005737 C30.18400311 58.03463936 30.18589876 55.22925199 30.18530273 52.42382812 C30.18520041 48.82924574 30.19894301 45.23485779 30.21607494 41.64032173 C30.22717808 38.86596773 30.2292226 36.09166139 30.22869301 33.31728745 C30.23044413 31.34799488 30.24127887 29.37871717 30.25224304 27.40945435 C30.24916641 26.21746429 30.24608978 25.02547424 30.24291992 23.79736328 C30.24434494 22.74751251 30.24576996 21.69766174 30.24723816 20.61599731 C30.18638521 17.76613085 30.18638521 17.76613085 28 15 C24.58839722 13.0383284 21.03264058 11.61056916 17.375 10.1875 C11.39028965 7.84288024 5.70888265 4.94272302 0 2 C0 1.34 0 0.68 0 0 Z " fill="#232323" transform="translate(488,293)"/>
<path d="M0 0 C7 0 7 0 10 2 C10.36328125 3.875 10.36328125 3.875 10.3125 6 C10.30863281 6.70125 10.30476562 7.4025 10.30078125 8.125 C10 10 10 10 8 12 C5.375 12.125 5.375 12.125 3 12 C3 14.97 3 17.94 3 21 C2.01 21 1.02 21 0 21 C0 14.07 0 7.14 0 0 Z " fill="#565656" transform="translate(188,117)"/>
<path d="M0 0 C2.97 0 5.94 0 9 0 C9 0.66 9 1.32 9 2 C7.02 2 5.04 2 3 2 C3 4.31 3 6.62 3 9 C4.98 9 6.96 9 9 9 C9 9.66 9 10.32 9 11 C7.02 11 5.04 11 3 11 C3 13.31 3 15.62 3 18 C4.98 18 6.96 18 9 18 C9 18.99 9 19.98 9 21 C6.03 21 3.06 21 0 21 C0 14.07 0 7.14 0 0 Z " fill="#535353" transform="translate(126,117)"/>
<path d="M0 0 C1.093125 0.226875 2.18625 0.45375 3.3125 0.6875 C4.59567892 4.53703676 4.37893637 7.63488135 4.3125 11.6875 C1.85426828 8.00015242 1.30007384 4.99050029 0.3125 0.6875 C-0.6775 0.6875 -1.6675 0.6875 -2.6875 0.6875 C-2.6875 7.6175 -2.6875 14.5475 -2.6875 21.6875 C-4.0075 21.0275 -5.3275 20.3675 -6.6875 19.6875 C-6.76839542 16.91608283 -6.82794062 14.14702181 -6.875 11.375 C-6.91270508 10.19647461 -6.91270508 10.19647461 -6.95117188 8.99414062 C-6.96083984 8.23681641 -6.97050781 7.47949219 -6.98046875 6.69921875 C-6.9961792 6.00272217 -7.01188965 5.30622559 -7.02807617 4.58862305 C-6.24288508 0.20562445 -4.1630107 -0.35279752 0 0 Z " fill="#202020" transform="translate(234.6875,116.3125)"/>
<path d="M0 0 C2 2 2 2 2 5 C1.34 5 0.68 5 0 5 C-0.33 4.34 -0.66 3.68 -1 3 C-1.99 3 -2.98 3 -4 3 C-4.33 7.95 -4.66 12.9 -5 18 C-2.69 17.34 -0.38 16.68 2 16 C1.125 19.875 1.125 19.875 0 21 C-2.63743611 21.27762485 -4.34765728 21.40227801 -6.640625 19.98828125 C-8.77338964 16.86880653 -8.43297604 13.58032782 -8.375 9.9375 C-8.38660156 9.20466797 -8.39820313 8.47183594 -8.41015625 7.71679688 C-8.3984375 5.58984375 -8.3984375 5.58984375 -8 2 C-4.77626323 -0.14915785 -3.73296326 -0.38286803 0 0 Z " fill="#545454" transform="translate(159,117)"/>
<path d="M0 0 C2.0625 0.4375 2.0625 0.4375 4 1 C4 1.99 4 2.98 4 4 C4.66 4 5.32 4 6 4 C5.88541307 5.43836751 5.75790884 6.87570966 5.625 8.3125 C5.55539063 9.11300781 5.48578125 9.91351563 5.4140625 10.73828125 C5 13 5 13 3 16 C1.68 16 0.36 16 -1 16 C-1.02685095 13.52076199 -1.04676547 11.0418116 -1.0625 8.5625 C-1.07506836 7.50192383 -1.07506836 7.50192383 -1.08789062 6.41992188 C-1.09653588 4.61306441 -1.05220011 2.80612397 -1 1 C-0.67 0.67 -0.34 0.34 0 0 Z " fill="#131313" transform="translate(155,119)"/>
<path d="M0 0 C0.99 0 1.98 0 3 0 C3.66 1.98 4.32 3.96 5 6 C5.99 4.02 6.98 2.04 8 0 C8.66 0 9.32 0 10 0 C9 7 8 14 7 21 C6.01 21 5.02 21 4 21 C3.87882813 20.32195312 3.75765625 19.64390625 3.6328125 18.9453125 C2.49299238 12.61492691 1.28510307 6.30247356 0 0 Z " fill="#545454" transform="translate(175,117)"/>
<path d="M0 0 C1.98 0.495 1.98 0.495 4 1 C4 5.95 4 10.9 4 16 C2.35 15.67 0.7 15.34 -1 15 C-1.02685412 12.68756208 -1.04632841 10.3750373 -1.0625 8.0625 C-1.07410156 6.77472656 -1.08570313 5.48695312 -1.09765625 4.16015625 C-1 1 -1 1 0 0 Z " fill="#222222" transform="translate(222,119)"/>
<path d="M0 0 C2.97 0 5.94 0 9 0 C9 0.66 9 1.32 9 2 C8.01 2 7.02 2 6 2 C6 8.27 6 14.54 6 21 C5.01 21 4.02 21 3 21 C3 14.73 3 8.46 3 2 C2.01 2 1.02 2 0 2 C0 1.34 0 0.68 0 0 Z " fill="#575757" transform="translate(200,117)"/>
<path d="M0 0 C0.99 0 1.98 0 3 0 C3 6.93 3 13.86 3 21 C2.01 21 1.02 21 0 21 C0 14.07 0 7.14 0 0 Z " fill="#545454" transform="translate(212,117)"/>
<path d="M0 0 C3.7836556 1.49997928 5.52286438 3.65229821 7.9375 6.875 C10.07923132 9.72780315 11.95517541 11.96426749 14.75390625 14.1953125 C15.49511719 14.79085938 16.23632812 15.38640625 17 16 C17 16.66 17 17.32 17 18 C17.61875 18.309375 18.2375 18.61875 18.875 18.9375 C20.25 19.625 21.625 20.3125 23 21 C22.67 21.99 22.34 22.98 22 24 C4.75064267 8.73007712 4.75064267 8.73007712 0 2 C0 1.34 0 0.68 0 0 Z " fill="#202020" transform="translate(386,406)"/>
<path d="M0 0 C4.37859255 0.50522222 6.81651224 3.17827222 10 6 C8.50871999 9.79598549 6.34266559 11.71720399 3 14 C2.01 14 1.02 14 0 14 C1.36983503 10.83884224 1.9890638 10.0072908 5 8 C3.63016497 4.83884224 3.0109362 4.0072908 0 2 C0 1.34 0 0.68 0 0 Z " fill="#555555" transform="translate(129,82)"/>
<path d="M0 0 C0.66 0 1.32 0 2 0 C-1.01171196 8.20431878 -6.20963478 15.50777233 -12 22 C-12.33 21.01 -12.66 20.02 -13 19 C-11.26953125 16.58203125 -11.26953125 16.58203125 -8.8125 13.8125 C-5.01949407 9.36960209 -2.31844201 5.3424968 0 0 Z " fill="#1E1E1E" transform="translate(511,395)"/>
<path d="M0 0 C-0.8125 1.9375 -0.8125 1.9375 -2 4 C-2.99 4.33 -3.98 4.66 -5 5 C-5.66 4.01 -6.32 3.02 -7 2 C-9.89608399 1.63501966 -9.89608399 1.63501966 -13.125 1.8125 C-14.22070312 1.83957031 -15.31640625 1.86664063 -16.4453125 1.89453125 C-17.70988281 1.94673828 -17.70988281 1.94673828 -19 2 C-16.18827013 -3.62345973 -5.24926244 -0.87487707 0 0 Z " fill="#131313" transform="translate(178,116)"/>
<path d="M0 0 C0.84111328 0.42925781 0.84111328 0.42925781 1.69921875 0.8671875 C8.12906336 4.03298535 13.74109048 6.63120952 21 6 C21 6.66 21 7.32 21 8 C13.22839347 8.79784554 8.38274255 7.74565384 1.80078125 3.5078125 C1.20652344 3.01023437 0.61226563 2.51265625 0 2 C0 1.34 0 0.68 0 0 Z " fill="#222222" transform="translate(430,443)"/>
<path d="M0 0 C3.63 0 7.26 0 11 0 C10.67 0.99 10.34 1.98 10 3 C6.7 3 3.4 3 0 3 C0 2.01 0 1.02 0 0 Z " fill="#515151" transform="translate(144,88)"/>
<path d="M0 0 C0.33 0.66 0.66 1.32 1 2 C-0.98 2.99 -0.98 2.99 -3 4 C-2.34 4.33 -1.68 4.66 -1 5 C-1.33 5.66 -1.66 6.32 -2 7 C-3.32 6.67 -4.64 6.34 -6 6 C-6.33 7.32 -6.66 8.64 -7 10 C-7.66 10 -8.32 10 -9 10 C-7.125 4.25 -7.125 4.25 -6 2 C-4.02111039 1.27306096 -2.02045442 0.60183749 0 0 Z " fill="#515151" transform="translate(487,379)"/>
<path d="M0 0 C1.90318884 2.85478326 2.4619099 4.41941308 3.125 7.6875 C3.29257813 8.49574219 3.46015625 9.30398437 3.6328125 10.13671875 C3.75398437 10.75160156 3.87515625 11.36648437 4 12 C2.68 12 1.36 12 0 12 C0 8.04 0 4.08 0 0 Z " fill="#171717" transform="translate(235,127)"/>
<path d="M0 0 C1.32 0.33 2.64 0.66 4 1 C4 2.98 4 4.96 4 7 C2.68 7.33 1.36 7.66 0 8 C0 5.36 0 2.72 0 0 Z " fill="#212121" transform="translate(191,119)"/>
<path d="M0 0 C1.32 0.33 2.64 0.66 4 1 C4 2.98 4 4.96 4 7 C2.68 7.33 1.36 7.66 0 8 C0 5.36 0 2.72 0 0 Z " fill="#272727" transform="translate(166,119)"/>
<path d="M0 0 C0 0.99 0 1.98 0 3 C-1.8984375 4.82421875 -1.8984375 4.82421875 -4.375 6.6875 C-5.18710937 7.31011719 -5.99921875 7.93273437 -6.8359375 8.57421875 C-9 10 -9 10 -11 10 C-9.73459948 6.20379845 -8.21781569 5.51321812 -4.9375 3.3125 C-4.01839844 2.68988281 -3.09929687 2.06726563 -2.15234375 1.42578125 C-1.44207031 0.95527344 -0.73179687 0.48476563 0 0 Z " fill="#202020" transform="translate(483,428)"/>
<path d="M0 0 C1.32 0 2.64 0 4 0 C4 3.63 4 7.26 4 11 C1.54176828 7.31265242 0.98757384 4.30300029 0 0 Z " fill="#1C1C1C" transform="translate(141,117)"/>
<path d="M0 0 C0.99 0.33 1.98 0.66 3 1 C3.33 2.98 3.66 4.96 4 7 C3.01 7 2.02 7 1 7 C0.67 7.66 0.34 8.32 0 9 C0 6.03 0 3.06 0 0 Z " fill="#242424" transform="translate(166,129)"/>
<path d="M0 0 C0.66 0.33 1.32 0.66 2 1 C-0.97 3.97 -3.94 6.94 -7 10 C-7 6.04435836 -5.59478606 4.89133304 -3 2 C-2.01 1.34 -1.02 0.68 0 0 Z " fill="#2E2E2E" transform="translate(388,232)"/>
<path d="M0 0 C1.65 0 3.3 0 5 0 C4.34 2.64 3.68 5.28 3 8 C0.4345406 5.4345406 0.45953913 3.52313332 0 0 Z " fill="#212121" transform="translate(178,117)"/>
<path d="M0 0 C2.5654594 2.5654594 2.54046087 4.47686668 3 8 C2.01 8.33 1.02 8.66 0 9 C0 6.03 0 3.06 0 0 Z " fill="#1C1C1C" transform="translate(141,128)"/>
<path d="M0 0 C0.99 0.33 1.98 0.66 3 1 C2.34 1 1.68 1 1 1 C0.7525 1.61875 0.505 2.2375 0.25 2.875 C-1.20628639 5.35068687 -2.37812506 5.95125002 -5 7 C-3.70700306 4.11562221 -2.34058637 2.12780579 0 0 Z " fill="#191919" transform="translate(495,417)"/>
</svg>
