<?xml version="1.0" encoding="UTF-8"?>
<svg version="1.1" xmlns="http://www.w3.org/2000/svg" width="1024" height="512">
<path d="M0 0 C1.76025764 -0.01073296 1.76025764 -0.01073296 3.55607605 -0.02168274 C4.85013367 -0.02437164 6.14419128 -0.02706055 7.47746277 -0.02983093 C8.84893975 -0.03609484 10.22041502 -0.04274158 11.59188843 -0.04974365 C15.32338576 -0.06715983 19.05487027 -0.07770705 22.78639817 -0.08594918 C25.11718039 -0.09109798 27.44795862 -0.09717376 29.77873802 -0.10346031 C37.06963391 -0.12251402 44.36051966 -0.13674484 51.65143567 -0.14507228 C60.07052965 -0.15484676 68.48936084 -0.18117081 76.90836221 -0.22157317 C83.41373698 -0.25172195 89.91903638 -0.26653996 96.42447966 -0.26985329 C100.3108537 -0.27220519 104.19694707 -0.28118327 108.08324623 -0.30631447 C111.73998163 -0.32957891 115.39625126 -0.33383533 119.05304146 -0.32355309 C121.03331103 -0.32282092 123.01355686 -0.34192362 124.99372864 -0.36161804 C126.17569321 -0.35467422 127.35765778 -0.34773041 128.57543945 -0.34057617 C129.60064099 -0.34296453 130.62584253 -0.34535288 131.68211079 -0.34781361 C135.22374886 0.27915474 136.90322383 1.68848536 139.47819519 4.14717102 C141.13316875 7.45711815 140.57903854 11.13840103 140.54069519 14.77217102 C140.53618347 15.5739679 140.53167175 16.37576477 140.52702332 17.20185852 C140.51522687 19.18366108 140.49729124 21.16542535 140.47819519 23.14717102 C141.04739685 22.96541321 141.61659851 22.7836554 142.20304871 22.59638977 C144.81243937 21.76961016 147.42640357 20.95831391 150.04069519 20.14717102 C150.9359491 19.86099915 151.831203 19.57482727 152.75358582 19.27998352 C162.37296227 16.32017538 162.37296227 16.32017538 167.47819519 17.14717102 C169.41178894 19.17451477 169.41178894 19.17451477 170.91569519 22.08467102 C171.76841003 23.70695618 171.76841003 23.70695618 172.63835144 25.36201477 C173.25530091 26.62194391 173.8683245 27.8838002 174.47819519 29.14717102 C174.83123718 29.8640509 175.18427917 30.58093079 175.54801941 31.3195343 C177.36200944 35.01511154 179.14443582 38.72501465 180.87663269 42.45967102 C181.30468201 43.38199524 181.30468201 43.38199524 181.74137878 44.32295227 C182.51586888 46.24044398 183.02281394 48.13215068 183.47819519 50.14717102 C184.17493347 49.98491028 184.87167175 49.82264954 185.58952332 49.6554718 C188.68357057 49.11103245 191.5561251 49.01765968 194.69694519 49.01435852 C195.87643738 49.01306946 197.05592957 49.0117804 198.27116394 49.01045227 C200.10614441 49.01625305 200.10614441 49.01625305 201.97819519 49.02217102 C203.2015155 49.01830383 204.42483582 49.01443665 205.68522644 49.01045227 C206.86471863 49.01174133 208.04421082 49.0130304 209.25944519 49.01435852 C210.33258972 49.01548645 211.40573425 49.01661438 212.51139832 49.01777649 C215.278421 49.13845803 217.78559192 49.52010083 220.47819519 50.14717102 C220.61016296 49.56322571 220.74213074 48.9792804 220.87809753 48.37763977 C221.44633509 46.26559 222.16068589 44.44000868 223.07975769 42.45967102 C223.40145935 41.76607483 223.72316101 41.07247864 224.05461121 40.35786438 C225.83391399 36.60662185 227.6439181 32.87181674 229.47819519 29.14717102 C229.94781677 28.17433167 229.94781677 28.17433167 230.42692566 27.18183899 C231.26664253 25.4669761 232.15230374 23.77483072 233.04069519 22.08467102 C233.53698425 21.12431946 234.03327332 20.1639679 234.54460144 19.17451477 C236.47819519 17.14717102 236.47819519 17.14717102 239.41569519 16.61592102 C245.0839911 17.03964202 250.530785 19.00451417 255.91569519 20.70967102 C257.06408875 21.06738586 258.2124823 21.42510071 259.39567566 21.7936554 C268.38509386 24.65673649 276.98880368 28.04353766 285.47819519 32.14717102 C285.6963901 41.50530809 285.4855529 50.70297982 284.54069519 60.02217102 C284.41041931 61.31429504 284.41041931 61.31429504 284.2775116 62.63252258 C283.91400909 65.99609665 283.55294072 68.92293444 282.47819519 72.14717102 C283.20135925 72.41658508 283.92452332 72.68599915 284.66960144 72.96357727 C293.22573445 76.56929118 300.5510091 82.6013664 307.70646667 88.414505 C311.7790094 91.82844579 311.7790094 91.82844579 316.47819519 94.14717102 C318.76189277 93.38209607 318.76189277 93.38209607 320.99772644 91.85810852 C321.85559753 91.32830383 322.71346863 90.79849915 323.59733582 90.25263977 C324.48614441 89.68158508 325.374953 89.1105304 326.29069519 88.52217102 C328.04690994 87.42534329 329.80341508 86.32898038 331.56022644 85.23310852 C335.03607954 83.05420784 335.03607954 83.05420784 338.49919128 80.85517883 C340.97084301 79.33858993 343.23857042 78.20626155 346.06022644 77.51045227 C349.89219781 78.51951743 351.79222772 81.35344024 354.16569519 84.33467102 C354.94735046 85.28382385 354.94735046 85.28382385 355.74479675 86.25215149 C357.3408263 88.20323204 358.91222907 90.17191264 360.47819519 92.14717102 C360.9398407 92.72322083 361.40148621 93.29927063 361.87712097 93.89277649 C364.82777977 97.58572569 367.67427433 101.34151549 370.47819519 105.14717102 C370.88151062 105.68680481 371.28482605 106.2264386 371.70036316 106.78242493 C372.875875 108.36825247 374.02133458 109.97621963 375.16569519 111.58467102 C376.16149597 112.97492493 376.16149597 112.97492493 377.17741394 114.39326477 C378.86710877 117.97054662 378.70421347 119.39424483 377.47819519 123.14717102 C375.97662394 125.85014622 374.22760686 128.33204404 372.41569519 130.83467102 C371.96258972 131.47855774 371.50948425 132.12244446 371.04264832 132.7858429 C370.57665222 133.44519836 370.11065613 134.10455383 369.63053894 134.78388977 C369.16655197 135.44935822 368.702565 136.11482666 368.22451782 136.80046082 C366.47819519 139.14717102 366.47819519 139.14717102 364.45550537 141.34190369 C357.0862178 149.87179242 357.3468445 157.5832886 357.47819519 168.28388977 C357.47066341 170.01696588 357.45961777 171.75002994 357.44523621 173.48306274 C357.41698581 178.00930885 357.4359695 182.53412785 357.46531677 187.06031799 C357.48682089 191.6928759 357.462931 196.32518552 357.44303894 200.9577179 C357.41072112 210.02118966 357.42837884 219.08380413 357.47819519 228.14717102 C358.63569275 228.36433777 358.63569275 228.36433777 359.8165741 228.58589172 C362.70456839 229.19490832 365.14542335 230.16282018 367.85319519 231.33467102 C371.31217201 232.81465247 374.77145242 234.27492041 378.27897644 235.63545227 C397.44024846 243.07127755 397.44024846 243.07127755 399.47819519 247.14717102 C399.57500668 249.22356925 399.60616242 251.30313674 399.60758972 253.38179016 C399.61074188 254.69398026 399.61389404 256.00617035 399.61714172 257.35812378 C399.61535059 258.79952528 399.6132993 260.24092648 399.61100769 261.68232727 C399.61168148 263.16006486 399.61265213 264.63780234 399.61390686 266.11553955 C399.61538353 269.2200882 399.61323243 272.32460813 399.60856628 275.42915344 C399.60290383 279.387615 399.60612591 283.34600822 399.61213875 287.3044672 C399.61577507 290.36130271 399.61459115 293.4181224 399.61201096 296.47495842 C399.61134834 297.93284043 399.61214661 299.39072392 399.61449051 300.8486042 C399.62388879 308.3460197 399.51326225 315.70897561 398.47819519 323.14717102 C397.81819519 323.14717102 397.15819519 323.14717102 396.47819519 323.14717102 C396.35444519 323.71822571 396.23069519 324.2892804 396.10319519 324.87763977 C393.13655322 336.54025102 385.78499162 347.50888272 377.47819519 356.14717102 C376.81819519 356.14717102 376.15819519 356.14717102 375.47819519 356.14717102 C375.15335144 356.9882843 375.15335144 356.9882843 374.82194519 357.84638977 C367.47211867 370.43083111 348.68064623 378.95121132 336.47819519 386.14717102 C335.61581238 386.71435852 334.75342957 387.28154602 333.86491394 387.86592102 C329.15840038 390.39249459 324.63274138 390.1393331 319.47819519 389.14717102 C314.82549343 387.01510879 310.67778615 384.39066903 306.46208191 381.50312805 C304.45685923 380.13258821 302.42670758 378.80766034 300.38835144 377.48701477 C291.64980559 371.74614434 283.94599662 365.46675654 276.47819519 358.14717102 C275.76792175 357.4639679 275.05764832 356.78076477 274.32585144 356.07685852 C271.67827096 353.49084967 269.60731272 351.36851536 267.72819519 348.14717102 C265.71758159 345.95163237 265.71758159 345.95163237 263.38835144 345.99482727 C260.39074026 346.24275 257.45349575 346.70306268 254.47819519 347.14717102 C243.30905633 348.68762778 232.37342505 349.46046991 221.09538269 349.44795227 C219.58294055 349.45186184 218.07049947 349.4562009 216.55805969 349.4609375 C213.41356321 349.46831851 210.26917913 349.4681696 207.12467957 349.46284485 C203.95428752 349.45822222 200.78427986 349.46511115 197.61393738 349.48335266 C179.38059861 349.587217 161.4896597 349.39568127 143.47819519 346.14717102 C142.20008972 345.9174762 140.92198425 345.68778137 139.60514832 345.4511261 C136.47933345 344.83355491 133.38751697 344.14557605 130.29069519 343.39717102 C129.21102478 343.13968079 128.13135437 342.88219055 127.01896667 342.61689758 C105.86561544 337.41251404 84.96684727 329.83939408 68.47819519 315.14717102 C67.56811707 314.4536554 66.65803894 313.76013977 65.72038269 313.04560852 C64.98046082 312.41912415 64.24053894 311.79263977 63.47819519 311.14717102 C63.47819519 310.48717102 63.47819519 309.82717102 63.47819519 309.14717102 C62.81819519 309.14717102 62.15819519 309.14717102 61.47819519 309.14717102 C50.12597632 295.70751644 45.92710343 280.70302072 46.22038269 263.3429718 C46.22786026 262.13621796 46.23533783 260.92946411 46.24304199 259.68614197 C46.25992169 257.08953867 46.28309366 254.4929699 46.31202698 251.89647293 C46.3576177 247.774693 46.37083643 243.6531776 46.37785339 239.53117371 C46.40119947 227.81957514 46.44178599 216.10862823 46.57048035 204.3976593 C46.6415383 197.9075275 46.67263694 191.41845969 46.66019058 184.92793643 C46.65531239 181.50766712 46.67005016 178.09017854 46.73472595 174.67045975 C47.01178182 157.91206219 46.26338307 147.46883744 34.47819519 135.14717102 C34.47819519 134.48717102 34.47819519 133.82717102 34.47819519 133.14717102 C32.65445374 133.18644714 32.65445374 133.18644714 30.79386902 133.22651672 C26.27468838 133.31714862 21.75558775 133.3744675 17.23576355 133.42182922 C15.28119896 133.44694383 13.32672802 133.48104233 11.3724823 133.52436829 C8.55982851 133.58515536 5.74841817 133.61341085 2.93522644 133.63545227 C2.06420792 133.6612587 1.19318939 133.68706512 0.29577637 133.71365356 C-0.52469681 133.71403122 -1.34516998 133.71440887 -2.19050598 133.71479797 C-2.90776352 133.72590103 -3.62502106 133.73700409 -4.36401367 133.7484436 C-8.03559346 132.72535095 -9.31341121 131.25718225 -11.52180481 128.14717102 C-12.26295022 124.25402847 -12.19436209 120.4126681 -12.15290833 116.45967102 C-12.16006363 115.27703674 -12.16721893 114.09440247 -12.17459106 112.87593079 C-12.18858654 109.64009196 -12.18018581 106.40529087 -12.16050076 103.16950989 C-12.14408921 99.77924168 -12.15293062 96.38902476 -12.15802002 92.99873352 C-12.16253823 87.30589132 -12.14668852 81.61337799 -12.11872864 75.92060852 C-12.08667756 69.344253 -12.0866931 62.76849052 -12.10394341 56.1920929 C-12.11982181 49.85900964 -12.11306663 43.52614326 -12.09600639 37.19306946 C-12.08914394 34.50095324 -12.09015992 31.80901129 -12.09755135 29.11689758 C-12.10299555 25.35578051 -12.08265123 21.5956731 -12.05525208 17.83467102 C-12.06504089 16.16223328 -12.06504089 16.16223328 -12.07502747 14.45600891 C-11.98146057 6.91022935 -11.98146057 6.91022935 -9.61346436 2.97920227 C-6.2825819 0.06176728 -4.35625238 0.01817879 0 0 Z " fill="#020202" transform="translate(80.52180480957031,67.85282897949219)"/>
<path d="M0 0 C2.38868104 1.06903995 4.79435986 2.0918828 7.20477295 3.11096191 C12.00695192 5.14558456 16.79595733 7.20923203 21.58099365 9.28381348 C24.58518939 10.58595078 27.59137757 11.88340235 30.59783936 13.18029785 C32.52439018 14.01335712 34.45082661 14.84668098 36.37713623 15.68029785 C37.2678331 16.06473053 38.15852997 16.44916321 39.07621765 16.84524536 C40.71465074 17.55656034 42.34937201 18.2765175 43.97935486 19.00698853 C45.8590407 19.83405403 47.77098346 20.58701111 49.68670654 21.32678223 C52.13104248 22.95373535 52.13104248 22.95373535 52.92913818 25.81262207 C52.96140503 27.51829346 52.96140503 27.51829346 52.99432373 29.25842285 C53.03122314 30.51364746 53.06812256 31.76887207 53.10614014 33.06213379 C53.11435791 34.3463623 53.12257568 35.63059082 53.13104248 36.95373535 C53.16117432 38.12194824 53.19130615 39.29016113 53.22235107 40.49377441 C53.30037749 44.02335137 53.32046079 47.54833207 53.31854248 51.07873535 C53.31918701 52.32614502 53.31983154 53.57355469 53.32049561 54.85876465 C53.26138448 65.31941821 52.48274504 75.5866595 51.13104248 85.95373535 C46.39034226 82.61456686 46.39034226 82.61456686 45.20526123 79.59436035 C45.07764404 78.8054541 44.95002686 78.01654785 44.81854248 77.20373535 C44.67803467 76.4045166 44.53752686 75.60529785 44.39276123 74.78186035 C44.30639404 74.1785791 44.22002686 73.57529785 44.13104248 72.95373535 C41.34306717 74.34772301 41.31841808 75.86021392 40.31854248 78.76623535 C38.62989098 83.09611098 37.39858772 85.72297307 33.13104248 87.95373535 C30.42785608 88.53263002 27.90465552 88.76569379 25.13104248 88.95373535 C25.46104248 89.94373535 25.79104248 90.93373535 26.13104248 91.95373535 C28.09949291 92.8328839 28.09949291 92.8328839 30.44354248 93.39123535 C34.3349568 94.60807443 36.80994703 95.42567026 39.13104248 98.95373535 C40.73859915 102.04226942 41.49254461 104.45921473 41.13104248 107.95373535 C38.67610859 111.84987421 35.46441487 114.80555032 32.13104248 117.95373535 C31.47877686 118.67174316 30.82651123 119.38975098 30.15447998 120.1295166 C20.89400035 130.22011891 8.77700645 138.21572663 -3.11895752 144.89123535 C-3.714021 145.23936279 -4.30908447 145.58749023 -4.92218018 145.94616699 C-7.77134713 147.46011699 -9.50851044 148.01207932 -12.71661377 147.49279785 C-17.01602551 145.39370463 -21.03008 142.97106991 -25.05645752 140.39123535 C-25.90288818 139.85039307 -26.74931885 139.30955078 -27.62139893 138.75231934 C-34.09355153 134.5613556 -40.17499039 130.17036392 -45.86895752 124.95373535 C-46.38651611 124.48387207 -46.90407471 124.01400879 -47.43731689 123.52990723 C-59.43491452 112.51687213 -68.12921268 101.13703592 -71.86895752 84.95373535 C-72.05329346 84.2060791 -72.23762939 83.45842285 -72.42755127 82.68811035 C-73.09361248 78.56206748 -73.25385055 74.43872272 -73.43145752 70.26623535 C-73.47391602 69.29613525 -73.51637451 68.32603516 -73.56011963 67.32653809 C-74.12595454 52.54538194 -73.95410952 37.74267332 -73.86895752 22.95373535 C-56.2793754 15.01321032 -38.61871543 7.27507247 -20.67950439 0.15246582 C-17.95748009 -0.92706716 -17.95748009 -0.92706716 -15.94903564 -2.22546387 C-10.36058863 -5.63359572 -5.36504643 -2.42022184 0 0 Z " fill="#353535" transform="translate(416.86895751953125,298.0462646484375)"/>
<path d="M0 0 C8.94892074 -0.24354807 17.7360361 0.52164806 26.625 1.4375 C27.99213926 1.57405156 29.3593267 1.71012163 30.7265625 1.84570312 C37.4893125 2.52013792 44.24719817 3.23229736 51 4 C51.06731323 5.15000488 51.06731323 5.15000488 51.13598633 6.32324219 C51.34741593 9.79985054 51.5797175 13.27475883 51.8125 16.75 C51.88275391 17.9565625 51.95300781 19.163125 52.02539062 20.40625 C52.10595703 21.56640625 52.18652344 22.7265625 52.26953125 23.921875 C52.33760986 24.99018555 52.40568848 26.05849609 52.47583008 27.15917969 C53.05206649 30.28218243 53.79569431 31.74095542 56 34 C59.49982945 35.16660982 62.79965647 35.31600207 66.44921875 35.5 C67.54638969 35.5609082 67.54638969 35.5609082 68.66572571 35.62304688 C71.00612303 35.75260956 73.34676157 35.87676524 75.6875 36 C78.0103536 36.12369226 80.33311185 36.24865716 82.65571594 36.37695312 C84.09923939 36.45656802 85.54291056 36.53356602 86.98674011 36.60742188 C90.3943048 36.79415317 93.76259724 37.07519446 97.14379883 37.52514648 C100.4233819 37.92899511 103.51524565 38.11639065 106.8125 38.09765625 C107.82441406 38.09443359 108.83632812 38.09121094 109.87890625 38.08789062 C110.90886719 38.07951172 111.93882812 38.07113281 113 38.0625 C114.06089844 38.05798828 115.12179688 38.05347656 116.21484375 38.04882812 C118.80995598 38.03713843 121.40494709 38.02075276 124 38 C125.9560219 32.81781211 126.77858808 27.70005432 127.5625 22.25 C127.81077792 20.54643152 128.06194057 18.8432802 128.31640625 17.140625 C128.42412354 16.39329102 128.53184082 15.64595703 128.64282227 14.87597656 C129 13 129 13 130 11 C146.17 11 162.34 11 179 11 C180.07226407 13.14452813 180.3425207 14.77428722 180.68359375 17.140625 C180.86825195 18.37619141 180.86825195 18.37619141 181.05664062 19.63671875 C181.30823591 21.36304951 181.55826571 23.08960922 181.80664062 24.81640625 C181.93103516 25.64527344 182.05542969 26.47414063 182.18359375 27.328125 C182.29243896 28.0799707 182.40128418 28.83181641 182.51342773 29.60644531 C183.09473093 32.46600202 184.07723362 35.23170085 185 38 C191.6 38.33 198.2 38.66 205 39 C205.061875 41.825625 205.12375 44.65125 205.1875 47.5625 C205.72085662 60.26797272 209.26116343 70.93686665 215.9609375 81.828125 C217 84 217 84 216 87 C178.40559211 94.00516917 133.61176742 96.56415183 96 89 C94.96568848 88.79600586 93.93137695 88.59201172 92.86572266 88.38183594 C67.20797598 83.18906175 40.95944859 75.78487831 21 58 C20.11957031 57.32066406 19.23914063 56.64132812 18.33203125 55.94140625 C15.47353589 53.56172084 14.58519317 51.36060952 13 48 C12.05575336 46.61528846 11.0958897 45.24116286 10.125 43.875 C4.77107555 36.01100623 1.05454291 27.11681775 0.68359375 17.578125 C0.62075195 16.04091797 0.62075195 16.04091797 0.55664062 14.47265625 C0.51732422 13.40917969 0.47800781 12.34570312 0.4375 11.25 C0.39431641 10.17105469 0.35113281 9.09210938 0.30664062 7.98046875 C0.20071011 5.32043572 0.09863579 2.66031188 0 0 Z " fill="#020202" transform="translate(128,325)"/>
<path d="M0 0 C2.82768624 2.41443933 2.98297087 2.81989806 3.36076355 6.81547546 C3.36947531 8.4416715 3.36145228 10.06800643 3.34057617 11.6940918 C3.34101425 12.5821048 3.34145233 13.4701178 3.34190369 14.38504028 C3.3398119 17.32332261 3.3164624 20.26103597 3.29296875 23.19921875 C3.28737419 25.23517037 3.28310343 27.27112603 3.28010559 29.30708313 C3.26864586 34.66821423 3.23916887 40.02910187 3.20599365 45.39013672 C3.17531714 50.85966702 3.16160542 56.32923661 3.14648438 61.79882812 C3.11430033 72.5326591 3.06309027 83.26630932 3 94 C8.49257925 95.16750084 13.87427924 96.22368946 19.48828125 96.59765625 C20.60654297 96.67693359 21.72480469 96.75621094 22.87695312 96.83789062 C24.01068359 96.91201172 25.14441406 96.98613281 26.3125 97.0625 C28.60045188 97.21724688 30.88822299 97.37469564 33.17578125 97.53515625 C34.17520752 97.600979 35.17463379 97.66680176 36.2043457 97.73461914 C38.86401172 97.98709115 41.3855109 98.46496175 44 99 C47.4020399 99.2175924 50.79880883 99.39026997 54.20507812 99.51757812 C61.13381342 99.86238843 61.13381342 99.86238843 64 102 C69.23314739 109.73155325 67.11800382 123.136602 67 132 C67.68320313 131.97679687 68.36640625 131.95359375 69.0703125 131.9296875 C76.44172245 131.79771852 83.60660905 132.27166635 90.9375 133 C99.34746102 133.83440118 107.54525464 134.20384483 116 134 C116.14248169 132.94087402 116.14248169 132.94087402 116.2878418 131.86035156 C116.73208687 128.65335034 117.20938046 125.4521186 117.6875 122.25 C117.83638672 121.13882813 117.98527344 120.02765625 118.13867188 118.8828125 C118.38520508 117.27792969 118.38520508 117.27792969 118.63671875 115.640625 C118.77811279 114.65610352 118.91950684 113.67158203 119.06518555 112.65722656 C120.31032242 109.11790306 121.8854405 108.05136023 125 106 C127.95935059 105.49206543 127.95935059 105.49206543 131.27148438 105.48242188 C132.51627563 105.46981323 133.76106689 105.45720459 135.0435791 105.44421387 C136.39364185 105.45137395 137.74369942 105.45957801 139.09375 105.46875 C140.48710399 105.46605318 141.88045614 105.46216917 143.27380371 105.45715332 C146.18906636 105.45126705 149.1038376 105.45979221 152.01904297 105.47851562 C155.74838121 105.50130574 159.47656793 105.48817783 163.20586395 105.46422577 C166.08161024 105.44974357 168.95708533 105.45438463 171.83283997 105.46473694 C173.20750567 105.46739759 174.58219633 105.46415775 175.95683289 105.45481873 C177.88072208 105.44461534 179.80469807 105.46293529 181.72851562 105.48242188 C182.82151978 105.48560425 183.91452393 105.48878662 185.04064941 105.49206543 C188.69018938 106.11846215 190.36804039 107.44533293 193 110 C193.85546875 112.0859375 193.85546875 112.0859375 194.1875 114.375 C194.32285156 115.23609375 194.45820313 116.0971875 194.59765625 116.984375 C194.73042969 117.97953125 194.86320313 118.9746875 195 120 C195.18433594 121.24265625 195.36867188 122.4853125 195.55859375 123.765625 C196.05891224 127.1746917 196.53753409 130.58562402 197 134 C200.3 134 203.6 134 207 134 C206.97643433 132.43318481 206.97643433 132.43318481 206.95239258 130.8347168 C206.89810303 126.96028348 206.8636537 123.08588381 206.83520508 119.21118164 C206.82011616 117.5340408 206.79964252 115.85693943 206.77368164 114.17993164 C206.73730189 111.76959496 206.72027514 109.35977981 206.70703125 106.94921875 C206.69154739 106.19912033 206.67606354 105.44902191 206.66011047 104.67619324 C206.65841642 99.43910713 206.65841642 99.43910713 208.23474121 97.41273499 C210.26587895 95.78721732 212.18825456 94.85737665 214.5847168 93.84277344 C215.51386398 93.44515808 216.44301117 93.04754272 217.40031433 92.63787842 C218.40645279 92.21597229 219.41259125 91.79406616 220.44921875 91.359375 C221.49463333 90.91410461 222.54004791 90.46883423 223.61714172 90.0100708 C226.97107267 88.58321105 230.32912331 87.16635991 233.6875 85.75 C236.98932699 84.34960577 240.29028662 82.94719091 243.59085083 81.54382324 C245.74013952 80.63185995 247.89091377 79.72338961 250.04318237 78.81848145 C254.65498816 76.87544891 259.2433913 74.91504939 263.76416016 72.76757812 C264.47337112 72.4360675 265.18258209 72.10455688 265.9132843 71.76300049 C267.7219386 70.90956495 269.51946443 70.0326464 271.31567383 69.15332031 C281.33967521 66.01546447 288.99042342 68.63448578 298.1875 73 C299.23486328 73.47695313 300.28222656 73.95390625 301.36132812 74.4453125 C303.91660346 75.61210489 306.46166754 76.79690785 309 78 C309.00586624 77.06705612 309.01173248 76.13411224 309.01777649 75.17289734 C309.07494697 66.3881239 309.14767853 57.60359935 309.23571491 48.8190794 C309.28047535 44.30266281 309.31971877 39.78633762 309.34643555 35.26977539 C309.37241219 30.91242194 309.41277405 26.55541912 309.46318626 22.19828224 C309.47989329 20.53452726 309.49138363 18.87071158 309.49761391 17.20688438 C309.50721365 14.87932807 309.53522147 12.55267657 309.56762695 10.2253418 C309.56619186 9.53482224 309.56475677 8.84430267 309.5632782 8.13285828 C309.6472637 3.87813263 309.81541155 3.18458845 313 0 C312.67 26.4 312.34 52.8 312 80 C313.65 80.33 315.3 80.66 317 81 C318.8087167 81.68578231 320.59975331 82.41922097 322.375 83.1875 C325.83397682 84.66748145 329.29325723 86.12774939 332.80078125 87.48828125 C351.96205327 94.92410653 351.96205327 94.92410653 354 99 C354.09681149 101.07639823 354.12796723 103.15596572 354.12939453 105.23461914 C354.13254669 106.54680923 354.13569885 107.85899933 354.13894653 109.21095276 C354.1371554 110.65235426 354.13510411 112.09375546 354.1328125 113.53515625 C354.13348629 115.01289384 354.13445694 116.49063132 354.13571167 117.96836853 C354.13718834 121.07291718 354.13503724 124.17743711 354.13037109 127.28198242 C354.12470864 131.24044398 354.12793072 135.1988372 354.13394356 139.15729618 C354.13757988 142.21413169 354.13639596 145.27095138 354.13381577 148.3277874 C354.13315315 149.78566941 354.13395142 151.2435529 354.13629532 152.70143318 C354.1456936 160.19884868 354.03506706 167.56180459 353 175 C352.34 175 351.68 175 351 175 C350.87625 175.57105469 350.7525 176.14210938 350.625 176.73046875 C347.65835803 188.39308 340.30679642 199.3617117 332 208 C331.34 208 330.68 208 330 208 C329.67515625 208.84111328 329.67515625 208.84111328 329.34375 209.69921875 C321.99392348 222.28366009 303.20245104 230.8040403 291 238 C290.13761719 238.5671875 289.27523438 239.134375 288.38671875 239.71875 C283.68020519 242.24532357 279.15454619 241.99216208 274 241 C269.34729824 238.86793776 265.19959096 236.243498 260.98388672 233.35595703 C258.97866404 231.98541719 256.94851239 230.66048932 254.91015625 229.33984375 C246.1716104 223.59897332 238.46780143 217.31958552 231 210 C230.28972656 209.31679688 229.57945312 208.63359375 228.84765625 207.9296875 C226.20007577 205.34367865 224.12911753 203.22134434 222.25 200 C220.2393864 197.80446135 220.2393864 197.80446135 217.91015625 197.84765625 C214.90934549 198.09584361 211.97355696 198.52478996 209 199 C193.65765508 201.34181696 178.48255942 201.20540185 163 201 C163 200.67 163 200.34 163 200 C163.95551758 199.95512451 164.91103516 199.91024902 165.89550781 199.86401367 C192.06819324 198.62127722 192.06819324 198.62127722 218 195 C216.52387159 191.1790169 214.83072158 187.50641836 213.0625 183.8125 C207.38799555 171.36743767 206.62419327 161.55687968 207 148 C206.40461426 148.01047363 205.80922852 148.02094727 205.19580078 148.03173828 C202.50557657 148.07323949 199.81541963 148.09930704 197.125 148.125 C196.18785156 148.14175781 195.25070312 148.15851563 194.28515625 148.17578125 C193.38925781 148.18222656 192.49335938 148.18867188 191.5703125 148.1953125 C190.74289551 148.20578613 189.91547852 148.21625977 189.06298828 148.22705078 C187 148 187 148 185 146 C184.39446072 143.70822213 183.88874105 141.38958082 183.4375 139.0625 C183.18871094 137.81597656 182.93992187 136.56945312 182.68359375 135.28515625 C181.87609528 130.22329443 181.46407407 125.10481479 181 120 C164.83 120 148.66 120 132 120 C131.34 124.95 130.68 129.9 130 135 C128.30588235 145.69411765 128.30588235 145.69411765 126 148 C123.99487305 148.25878906 123.99487305 148.25878906 121.51171875 148.265625 C120.12702393 148.27154663 120.12702393 148.27154663 118.71435547 148.27758789 C117.71549316 148.26848389 116.71663086 148.25937988 115.6875 148.25 C114.65512207 148.24540771 113.62274414 148.24081543 112.55908203 148.23608398 C104.92272521 148.14799461 97.40074405 147.61665857 89.81323242 146.7800293 C82.49558323 145.98301632 75.19696122 145.64131386 67.83740234 145.51782227 C63.1046094 145.37278955 59.81863667 145.10631406 56 142 C53.59075268 138.38612902 53.61332838 136.30756473 53.375 132 C53.31807983 131.00601196 53.31807983 131.00601196 53.26000977 129.99194336 C52.95908504 124.32623358 52.89387907 118.67157431 53 113 C51.83210938 113.02964844 50.66421875 113.05929687 49.4609375 113.08984375 C42.48090723 113.08847886 35.56028027 112.27332504 28.625 111.5625 C27.26566684 111.4260149 25.90629196 111.28994475 24.546875 111.15429688 C21.92075488 110.89216169 19.29480961 110.62847627 16.66894531 110.36376953 C11.78191314 109.87922881 6.89196636 109.43156842 2 109 C3.16857111 127.68763716 4.89896154 145.38730326 18 160 C17.34 160.33 16.68 160.66 16 161 C5.18036532 146.3451634 0.54475056 133.10851914 0.56762695 114.77416992 C0.5574353 113.52381454 0.54724365 112.27345917 0.53674316 110.98521423 C0.51196618 107.60166799 0.49993245 104.21855371 0.49388909 100.83495498 C0.48442199 97.28218209 0.45821288 93.72953069 0.43388367 90.17683411 C0.39044186 83.4695073 0.3617586 76.76220436 0.33856028 70.0547803 C0.31138793 62.41005528 0.26748459 54.76545383 0.22227156 47.12081754 C0.12974552 31.41394218 0.05791924 15.70704346 0 0 Z M275.4453125 79.87890625 C273.95837891 80.50853271 273.95837891 80.50853271 272.44140625 81.15087891 C271.34699219 81.61671387 270.25257813 82.08254883 269.125 82.5625 C267.99707031 83.04122559 266.86914062 83.51995117 265.70703125 84.01318359 C255.46377767 88.36601624 245.23112552 92.74375124 235 97.125 C234.21739807 97.46000519 233.43479614 97.79501038 232.628479 98.14016724 C230.39784339 99.09532933 228.16759878 100.05139779 225.9375 101.0078125 C225.26467987 101.29588272 224.59185974 101.58395294 223.89865112 101.88075256 C220.41865978 103.37355344 220.41865978 103.37355344 217 105 C215.06977209 158.47899072 215.06977209 158.47899072 240.9375 203.375 C248.19961446 210.65320719 256.3905761 216.42955029 265 222 C265.66837891 222.43844238 266.33675781 222.87688477 267.02539062 223.32861328 C268.89612024 224.54048424 270.78419708 225.71511449 272.6875 226.875 C273.76386719 227.53242188 274.84023438 228.18984375 275.94921875 228.8671875 C278.94600848 230.28343909 278.94600848 230.28343909 282 229.40234375 C300.36752056 220.81648453 320.59745257 207.10382115 332 190 C331.92622447 185.07548326 330.62295592 181.68090531 327.3125 178.0625 C323.89759243 175.93623679 320.85159617 175.05730091 317 174 C316.67 173.01 316.34 172.02 316 171 C316.67546875 170.91363281 317.3509375 170.82726562 318.046875 170.73828125 C323.71233526 169.89216048 323.71233526 169.89216048 328.4375 166.875 C330.35402353 163.3485967 331.61844547 159.76787599 333 156 C333.66 155.67 334.32 155.34 335 155 C335.08636719 155.60328125 335.17273438 156.2065625 335.26171875 156.828125 C335.40222656 157.62734375 335.54273438 158.4265625 335.6875 159.25 C335.81511719 160.03890625 335.94273437 160.8278125 336.07421875 161.640625 C337.31610632 164.8056043 339.26475752 166.07339948 342 168 C343.51747316 156.36152284 344.19356646 144.86587232 344.1875 133.125 C344.1884668 131.3457312 344.1884668 131.3457312 344.18945312 129.53051758 C344.13933843 121.31341602 343.67701091 113.18801461 343 105 C331.09892913 99.28436989 318.99631177 94.07928874 306.84277344 88.92700195 C303.58122265 87.54393614 300.32176277 86.15602601 297.0625 84.76757812 C294.99230736 83.88773876 292.92199926 83.008171 290.8515625 82.12890625 C289.38778671 81.50563194 289.38778671 81.50563194 287.8944397 80.86976624 C287.00195526 80.49194504 286.10947083 80.11412384 285.18994141 79.72485352 C284.40245514 79.3906691 283.61496887 79.05648468 282.80361938 78.71217346 C279.78568035 77.52051623 278.42241629 78.61593472 275.4453125 79.87890625 Z " fill="#3D3D3D" transform="translate(126,216)"/>
<path d="M0 0 C2.38868104 1.06903995 4.79435986 2.0918828 7.20477295 3.11096191 C12.00695192 5.14558456 16.79595733 7.20923203 21.58099365 9.28381348 C24.58518939 10.58595078 27.59137757 11.88340235 30.59783936 13.18029785 C32.52439018 14.01335712 34.45082661 14.84668098 36.37713623 15.68029785 C37.2678331 16.06473053 38.15852997 16.44916321 39.07621765 16.84524536 C40.71465074 17.55656034 42.34937201 18.2765175 43.97935486 19.00698853 C45.8590407 19.83405403 47.77098346 20.58701111 49.68670654 21.32678223 C52.13104248 22.95373535 52.13104248 22.95373535 52.92913818 25.81262207 C52.96140503 27.51829346 52.96140503 27.51829346 52.99432373 29.25842285 C53.03122314 30.51364746 53.06812256 31.76887207 53.10614014 33.06213379 C53.11435791 34.3463623 53.12257568 35.63059082 53.13104248 36.95373535 C53.16117432 38.12194824 53.19130615 39.29016113 53.22235107 40.49377441 C53.30037749 44.02335137 53.32046079 47.54833207 53.31854248 51.07873535 C53.31918701 52.32614502 53.31983154 53.57355469 53.32049561 54.85876465 C53.26138448 65.31941821 52.48274504 75.5866595 51.13104248 85.95373535 C46.39034226 82.61456686 46.39034226 82.61456686 45.20526123 79.59436035 C45.07764404 78.8054541 44.95002686 78.01654785 44.81854248 77.20373535 C44.67803467 76.4045166 44.53752686 75.60529785 44.39276123 74.78186035 C44.30639404 74.1785791 44.22002686 73.57529785 44.13104248 72.95373535 C41.34306717 74.34772301 41.31841808 75.86021392 40.31854248 78.76623535 C38.68171199 83.08376182 37.17882217 85.48009221 33.13104248 87.95373535 C32.47104248 87.62373535 31.81104248 87.29373535 31.13104248 86.95373535 C31.15722656 86.15677246 31.18341064 85.35980957 31.21038818 84.53869629 C31.31433193 80.92724322 31.37936333 77.31610463 31.44354248 73.70373535 C31.48543701 72.44947754 31.52733154 71.19521973 31.57049561 69.9029541 C31.58660889 68.69768066 31.60272217 67.49240723 31.61932373 66.25061035 C31.64550781 65.14040527 31.67169189 64.0302002 31.69866943 62.88635254 C31.38541625 59.76638731 31.38541625 59.76638731 28.7880249 57.68518066 C27.9112207 57.11380371 27.0344165 56.54242676 26.13104248 55.95373535 C23.13104248 53.95373535 23.13104248 53.95373535 22.45526123 51.80529785 C22.13518636 48.9901815 22.03999205 46.21385426 21.99261475 43.38244629 C21.78851719 34.84081143 19.89121957 29.17607301 15.13104248 21.95373535 C14.82037842 21.2370166 14.50971436 20.52029785 14.18963623 19.78186035 C12.82494581 17.4251256 11.62379604 16.99089888 9.13104248 15.95373535 C8.32666748 15.53994629 7.52229248 15.12615723 6.69354248 14.6998291 C5.42510498 14.0520752 5.42510498 14.0520752 4.13104248 13.39123535 C2.86260498 12.73961426 2.86260498 12.73961426 1.56854248 12.0748291 C-4.99328841 9.05680752 -12.62785905 8.8904227 -19.59552002 10.6373291 C-29.80148279 14.44481676 -36.15536238 20.10622449 -40.86895752 29.95373535 C-43.0660886 35.21769522 -43.29071463 40.20568203 -43.49395752 45.82873535 C-43.53262939 46.70787598 -43.57130127 47.5870166 -43.61114502 48.49279785 C-43.70476786 50.64612328 -43.78792211 52.7998995 -43.86895752 54.95373535 C-45.62677002 55.60477702 -47.38458252 56.25581868 -49.14239502 56.90686035 C-51.41704255 58.2860584 -51.96481883 59.47062781 -52.86895752 61.95373535 C-54.88685909 78.05389936 -52.56007643 93.72021881 -42.86895752 106.95373535 C-35.4204254 115.37323684 -23.90986582 123.33652522 -12.86895752 125.95373535 C-7.28442247 125.69608668 -2.95304359 123.94533476 1.94354248 121.45373535 C2.99130859 120.92296387 2.99130859 120.92296387 4.0602417 120.38146973 C15.5384488 114.32551569 24.55232305 105.16365384 29.13104248 92.95373535 C33.54119372 94.15650387 36.42680079 95.187113 39.13104248 98.95373535 C40.75000985 102.034183 41.49211987 104.46332058 41.13104248 107.95373535 C38.67610859 111.84987421 35.46441487 114.80555032 32.13104248 117.95373535 C31.47877686 118.67174316 30.82651123 119.38975098 30.15447998 120.1295166 C20.89400035 130.22011891 8.77700645 138.21572663 -3.11895752 144.89123535 C-3.714021 145.23936279 -4.30908447 145.58749023 -4.92218018 145.94616699 C-7.77134713 147.46011699 -9.50851044 148.01207932 -12.71661377 147.49279785 C-17.01602551 145.39370463 -21.03008 142.97106991 -25.05645752 140.39123535 C-25.90288818 139.85039307 -26.74931885 139.30955078 -27.62139893 138.75231934 C-34.09355153 134.5613556 -40.17499039 130.17036392 -45.86895752 124.95373535 C-46.38651611 124.48387207 -46.90407471 124.01400879 -47.43731689 123.52990723 C-59.43491452 112.51687213 -68.12921268 101.13703592 -71.86895752 84.95373535 C-72.05329346 84.2060791 -72.23762939 83.45842285 -72.42755127 82.68811035 C-73.09361248 78.56206748 -73.25385055 74.43872272 -73.43145752 70.26623535 C-73.47391602 69.29613525 -73.51637451 68.32603516 -73.56011963 67.32653809 C-74.12595454 52.54538194 -73.95410952 37.74267332 -73.86895752 22.95373535 C-56.2793754 15.01321032 -38.61871543 7.27507247 -20.67950439 0.15246582 C-17.95748009 -0.92706716 -17.95748009 -0.92706716 -15.94903564 -2.22546387 C-10.36058863 -5.63359572 -5.36504643 -2.42022184 0 0 Z " fill="#000000" transform="translate(416.86895751953125,298.0462646484375)"/>
<path d="M0 0 C6.43703398 -0.10251646 12.87385289 -0.17192681 19.31152344 -0.21972656 C21.49552273 -0.23968058 23.67946973 -0.26685371 25.86328125 -0.30175781 C42.36833378 -0.5587046 58.02852688 -0.79014253 71 11 C75.53882837 15.8568902 78.76130353 20.75521512 81 27 C81.52134521 28.39968018 81.52134521 28.39968018 82.05322266 29.82763672 C83.65439099 35.19266544 83.36894136 40.56316986 83.375 46.125 C83.39949219 47.28515625 83.42398438 48.4453125 83.44921875 49.640625 C83.49044491 61.92602094 80.36176661 72.76624283 72 82 C63.42001259 89.81122054 51.46718053 96.11685462 39.61450195 96.12939453 C38.75713943 96.13254669 37.89977692 96.13569885 37.01643372 96.13894653 C36.0996434 96.1369223 35.18285309 96.13489807 34.23828125 96.1328125 C33.29188278 96.13376923 32.34548431 96.13472595 31.3704071 96.13571167 C29.37413466 96.13639125 27.37785998 96.13455243 25.3815918 96.13037109 C22.31358943 96.12500191 19.24573229 96.13033272 16.17773438 96.13671875 C14.23958301 96.13605828 12.30143173 96.13477776 10.36328125 96.1328125 C8.97898674 96.13584885 8.97898674 96.13584885 7.56672668 96.13894653 C1.11496156 96.11496156 1.11496156 96.11496156 0 95 C-0.09526806 92.04753646 -0.12552452 89.11851579 -0.11352539 86.16577148 C-0.11367142 85.23903625 -0.11381744 84.31230103 -0.1139679 83.35748291 C-0.11326838 80.27866313 -0.10547421 77.19990303 -0.09765625 74.12109375 C-0.09579221 71.99259982 -0.09436824 69.86410547 -0.09336853 67.73561096 C-0.08954228 62.1213768 -0.07971108 56.50716832 -0.06866455 50.89294434 C-0.05845273 45.16886747 -0.0538714 39.44478647 -0.04882812 33.72070312 C-0.03808891 22.48045744 -0.0210112 11.24023085 0 0 Z M24 20 C24 37.82 24 55.64 24 74 C39.52108608 74.52774708 39.52108608 74.52774708 53 68 C54.62232926 65.72114285 55.75187615 63.54082355 57 61 C57.5878125 59.824375 57.5878125 59.824375 58.1875 58.625 C61.12696631 49.12826268 59.84387598 40.55399698 55.6875 31.625 C52.20955624 25.13690608 49.06480496 23.35493499 42 21 C36.06 20.67 30.12 20.34 24 20 Z " fill="#010101" transform="translate(708,178)"/>
<path d="M0 0 C1.09892578 -0.02835938 2.19785156 -0.05671875 3.33007812 -0.0859375 C14.13102268 -0.11139641 23.75064863 3.32554249 32.0859375 10.296875 C42.42537678 21.13598978 45.76768446 33.810779 45.5625 48.4375 C45.55162354 49.49219482 45.54074707 50.54688965 45.52954102 51.63354492 C45.2355136 65.974316 41.78783199 76.6263265 31.875 87.3125 C22.82082847 95.8328655 14.27799855 97.74805454 2.26586914 97.85009766 C0.85098709 97.8665554 -0.56381539 97.89370955 -1.97827148 97.93212891 C-13.59226801 98.24532145 -21.63997064 96.30552674 -30.75 88.875 C-31.81541016 88.02035156 -31.81541016 88.02035156 -32.90234375 87.1484375 C-36.29738982 84.21856135 -38.70865347 81.50732672 -40.8125 77.5 C-40.8125 76.51 -40.8125 75.52 -40.8125 74.5 C-41.4725 74.5 -42.1325 74.5 -42.8125 74.5 C-43.29759793 73.12708132 -43.77525513 71.75153297 -44.25 70.375 C-44.51683594 69.60929687 -44.78367187 68.84359375 -45.05859375 68.0546875 C-49.01382465 54.65198796 -48.89261473 35.88716853 -42.1953125 23.51171875 C-40.49279423 20.75334687 -38.73119893 18.11190629 -36.8125 15.5 C-36.18601562 14.64535156 -35.55953125 13.79070312 -34.9140625 12.91015625 C-32.66872248 10.33511017 -30.50789682 8.69709063 -27.625 6.875 C-26.30435547 6.02035156 -26.30435547 6.02035156 -24.95703125 5.1484375 C-16.68571709 0.8124194 -9.28835931 -0.02156323 0 0 Z M-16.45703125 27.53515625 C-16.84246094 28.20417969 -17.22789062 28.87320313 -17.625 29.5625 C-18.02332031 30.23410156 -18.42164063 30.90570313 -18.83203125 31.59765625 C-23.16807464 40.01061694 -22.62195852 52.41552676 -20.8125 61.5 C-18.74575452 67.30771501 -16.27837907 72.30046103 -10.8125 75.5 C-4.57996352 78.33297113 1.49140144 78.35376454 7.9375 76.3125 C14.59493403 72.59970025 17.07536989 68.46533571 19.3984375 61.3828125 C22.25332688 50.95257307 21.89314941 39.17744783 17 29.375 C14.41920766 25.41532718 11.87050801 22.64053905 7.1875 21.5 C4.46594373 21.23400427 1.84980999 21.05472499 -0.875 21 C-1.90234253 20.97184204 -1.90234253 20.97184204 -2.95043945 20.94311523 C-8.88423376 21.01833537 -12.73364446 22.92735454 -16.45703125 27.53515625 Z " fill="#010101" transform="translate(847.8125,176.5)"/>
<path d="M0 0 C1.16853516 -0.03287109 2.33707031 -0.06574219 3.54101562 -0.09960938 C14.35938425 -0.16597973 23.65479235 3.22264298 31.8125 10.4375 C40.90851605 19.57745815 45.01376837 30.6577939 45.8125 43.4375 C45.86535156 44.22125 45.91820312 45.005 45.97265625 45.8125 C46.41572959 58.75794709 44.15225186 73.06968027 35.5 83.125 C34.1696875 84.2696875 34.1696875 84.2696875 32.8125 85.4375 C31.95011719 86.26701172 31.95011719 86.26701172 31.0703125 87.11328125 C21.56849814 96.02361721 13.00010738 98.34249941 0.0625 98.1875 C-0.60291809 98.18363281 -1.26833618 98.17976563 -1.95391846 98.17578125 C-15.260913 98.04743988 -23.81749783 95.63645464 -33.75 86.5 C-34.92820008 85.17389821 -36.0773769 83.82109245 -37.1875 82.4375 C-37.65414062 81.89222656 -38.12078125 81.34695313 -38.6015625 80.78515625 C-46.39904379 70.23702971 -48.63393572 54.10395114 -47.1875 41.4375 C-44.80376464 28.21376136 -40.05607065 15.88656552 -29.1875 7.4375 C-19.59862176 1.61886181 -11.09011417 0.05415682 0 0 Z M-14.0625 24.625 C-15.114375 26.0171875 -15.114375 26.0171875 -16.1875 27.4375 C-16.909375 28.38625 -17.63125 29.335 -18.375 30.3125 C-23.62040978 40.20384417 -23.04653426 53.95831245 -20.1875 64.4375 C-18.03446121 69.19972987 -15.58964565 73.03409591 -11.0078125 75.7109375 C-5.06573607 77.95206667 0.75121961 78.11098169 6.9375 76.75 C13.83163283 73.60267849 16.35778629 70.13938753 18.98779297 63.24609375 C20.34320288 58.63015662 20.39284802 54.21820723 20.3125 49.4375 C20.32796875 48.51710938 20.3434375 47.59671875 20.359375 46.6484375 C20.31093734 38.05075296 18.04526775 29.67026775 11.8125 23.4375 C4.08253631 18.97417368 -6.93102108 19.19887474 -14.0625 24.625 Z " fill="#020202" transform="translate(651.1875,176.5625)"/>
<path d="M0 0 C1.1859375 -0.01998047 2.371875 -0.03996094 3.59375 -0.06054688 C10.78584894 -0.05662106 22.76822464 -0.04427536 28.25 5.4375 C28.33685603 6.99922745 28.35702219 8.56479344 28.34765625 10.12890625 C28.34282227 11.54526367 28.34282227 11.54526367 28.33789062 12.99023438 C28.32532227 14.48006836 28.32532227 14.48006836 28.3125 16 C28.30798828 16.99708984 28.30347656 17.99417969 28.29882812 19.02148438 C28.28700007 21.49354849 28.27051849 23.96549518 28.25 26.4375 C27.19683594 26.14875 26.14367187 25.86 25.05859375 25.5625 C12.99159466 22.39787034 -1.12674441 19.12051326 -12.75 25.4375 C-18.0741879 29.71999896 -20.70391395 34.75002135 -21.75 41.4375 C-22.22853921 50.08801656 -22.53574887 58.43943901 -18.75 66.4375 C-18.37875 67.365625 -18.0075 68.29375 -17.625 69.25 C-13.56502476 73.98663777 -8.4498496 75.36764637 -2.37890625 75.90625 C1.83269365 76.21237204 6.0211103 76.30430662 10.25 76.4375 C10.25 71.1575 10.25 65.8775 10.25 60.4375 C4.97 60.4375 -0.31 60.4375 -5.75 60.4375 C-5.75 54.1675 -5.75 47.8975 -5.75 41.4375 C-2.58685847 39.85592923 0.81289543 40.2956065 4.28515625 40.3046875 C5.47594032 40.30325241 5.47594032 40.30325241 6.69078064 40.30178833 C8.36945678 40.30110749 10.04813555 40.3029551 11.72680664 40.30712891 C14.30556097 40.31248559 16.88414168 40.30717708 19.46289062 40.30078125 C21.09114622 40.30144191 22.71940171 40.30272282 24.34765625 40.3046875 C25.12367691 40.30266327 25.89969757 40.30063904 26.69923401 40.29855347 C32.13504417 40.32254417 32.13504417 40.32254417 33.25 41.4375 C33.36917672 42.95550844 33.42008262 44.47895593 33.44287109 46.00146484 C33.45893402 46.97272308 33.47499695 47.94398132 33.49154663 48.94467163 C33.53580463 53.3908433 33.5770564 57.83686296 33.60009766 62.28320312 C33.61667466 64.63258762 33.64398727 66.98192133 33.68212891 69.33105469 C33.73671746 72.70795001 33.75874398 76.08366121 33.7734375 79.4609375 C33.79610687 80.51413177 33.81877625 81.56732605 33.84213257 82.6524353 C33.8342998 85.33907359 33.786679 87.80508326 33.25 90.4375 C30.94848633 92.48925781 30.94848633 92.48925781 28.25 93.4375 C27.64583252 93.81567871 27.04166504 94.19385742 26.41918945 94.58349609 C19.3217451 98.39142848 11.69110179 98.11194728 3.84936523 98.06884766 C1.45175051 98.06253751 -0.9408859 98.10949625 -3.33789062 98.16015625 C-16.77346619 98.27118472 -26.54068735 94.54682615 -36.484375 85.1484375 C-44.64245384 75.3868742 -47.01704778 64.71971705 -47.1550293 52.30834961 C-47.17638723 50.87222927 -47.21021885 49.43623088 -47.25756836 48.00073242 C-47.69038975 34.72497601 -45.21435934 24.40971501 -36.4375 13.9375 C-25.6021733 2.88437779 -15.23205322 -0.08988873 0 0 Z " fill="#020202" transform="translate(557.75,176.5625)"/>
<path d="M0 0 C2.82768624 2.41443933 2.98297087 2.81989806 3.36076355 6.81547546 C3.36947531 8.4416715 3.36145228 10.06800643 3.34057617 11.6940918 C3.34101425 12.5821048 3.34145233 13.4701178 3.34190369 14.38504028 C3.3398119 17.32332261 3.3164624 20.26103597 3.29296875 23.19921875 C3.28737419 25.23517037 3.28310343 27.27112603 3.28010559 29.30708313 C3.26864586 34.66821423 3.23916887 40.02910187 3.20599365 45.39013672 C3.17531714 50.85966702 3.16160542 56.32923661 3.14648438 61.79882812 C3.11430033 72.5326591 3.06309027 83.26630932 3 94 C8.49257925 95.16750084 13.87427924 96.22368946 19.48828125 96.59765625 C20.60654297 96.67693359 21.72480469 96.75621094 22.87695312 96.83789062 C24.01068359 96.91201172 25.14441406 96.98613281 26.3125 97.0625 C28.60045188 97.21724688 30.88822299 97.37469564 33.17578125 97.53515625 C34.17520752 97.600979 35.17463379 97.66680176 36.2043457 97.73461914 C38.86401172 97.98709115 41.3855109 98.46496175 44 99 C47.4020399 99.2175924 50.79880883 99.39026997 54.20507812 99.51757812 C61.13381342 99.86238843 61.13381342 99.86238843 64 102 C69.23314739 109.73155325 67.11800382 123.136602 67 132 C67.68320313 131.97679687 68.36640625 131.95359375 69.0703125 131.9296875 C76.44172245 131.79771852 83.60660905 132.27166635 90.9375 133 C99.34746102 133.83440118 107.54525464 134.20384483 116 134 C116.14248169 132.94087402 116.14248169 132.94087402 116.2878418 131.86035156 C116.73208687 128.65335034 117.20938046 125.4521186 117.6875 122.25 C117.83638672 121.13882813 117.98527344 120.02765625 118.13867188 118.8828125 C118.38520508 117.27792969 118.38520508 117.27792969 118.63671875 115.640625 C118.77811279 114.65610352 118.91950684 113.67158203 119.06518555 112.65722656 C120.31032242 109.11790306 121.8854405 108.05136023 125 106 C127.95935059 105.49206543 127.95935059 105.49206543 131.27148438 105.48242188 C132.51627563 105.46981323 133.76106689 105.45720459 135.0435791 105.44421387 C136.39364185 105.45137395 137.74369942 105.45957801 139.09375 105.46875 C140.48710399 105.46605318 141.88045614 105.46216917 143.27380371 105.45715332 C146.18906636 105.45126705 149.1038376 105.45979221 152.01904297 105.47851562 C155.74838121 105.50130574 159.47656793 105.48817783 163.20586395 105.46422577 C166.08161024 105.44974357 168.95708533 105.45438463 171.83283997 105.46473694 C173.20750567 105.46739759 174.58219633 105.46415775 175.95683289 105.45481873 C177.88072208 105.44461534 179.80469807 105.46293529 181.72851562 105.48242188 C182.82151978 105.48560425 183.91452393 105.48878662 185.04064941 105.49206543 C188.69018938 106.11846215 190.36804039 107.44533293 193 110 C193.85546875 112.0859375 193.85546875 112.0859375 194.1875 114.375 C194.32285156 115.23609375 194.45820313 116.0971875 194.59765625 116.984375 C194.73042969 117.97953125 194.86320313 118.9746875 195 120 C195.18433594 121.24265625 195.36867188 122.4853125 195.55859375 123.765625 C196.05891224 127.1746917 196.53753409 130.58562402 197 134 C200.3 134.33 203.6 134.66 207 135 C207 139.29 207 143.58 207 148 C203.70811731 148.05376941 200.41710574 148.09356106 197.125 148.125 C196.18785156 148.14175781 195.25070312 148.15851563 194.28515625 148.17578125 C193.38925781 148.18222656 192.49335938 148.18867188 191.5703125 148.1953125 C190.74289551 148.20578613 189.91547852 148.21625977 189.06298828 148.22705078 C187 148 187 148 185 146 C184.39446072 143.70822213 183.88874105 141.38958082 183.4375 139.0625 C183.18871094 137.81597656 182.93992187 136.56945312 182.68359375 135.28515625 C181.87609528 130.22329443 181.46407407 125.10481479 181 120 C164.83 120 148.66 120 132 120 C131.34 124.95 130.68 129.9 130 135 C128.30588235 145.69411765 128.30588235 145.69411765 126 148 C123.99487305 148.25878906 123.99487305 148.25878906 121.51171875 148.265625 C120.12702393 148.27154663 120.12702393 148.27154663 118.71435547 148.27758789 C117.71549316 148.26848389 116.71663086 148.25937988 115.6875 148.25 C114.65512207 148.24540771 113.62274414 148.24081543 112.55908203 148.23608398 C104.92272521 148.14799461 97.40074405 147.61665857 89.81323242 146.7800293 C82.49558323 145.98301632 75.19696122 145.64131386 67.83740234 145.51782227 C63.1046094 145.37278955 59.81863667 145.10631406 56 142 C53.59075268 138.38612902 53.61332838 136.30756473 53.375 132 C53.31807983 131.00601196 53.31807983 131.00601196 53.26000977 129.99194336 C52.95908504 124.32623358 52.89387907 118.67157431 53 113 C51.83210938 113.02964844 50.66421875 113.05929687 49.4609375 113.08984375 C42.48090723 113.08847886 35.56028027 112.27332504 28.625 111.5625 C27.26566684 111.4260149 25.90629196 111.28994475 24.546875 111.15429688 C21.92075488 110.89216169 19.29480961 110.62847627 16.66894531 110.36376953 C11.78191314 109.87922881 6.89196636 109.43156842 2 109 C3.16857111 127.68763716 4.89896154 145.38730326 18 160 C17.34 160.33 16.68 160.66 16 161 C5.18036532 146.3451634 0.54475056 133.10851914 0.56762695 114.77416992 C0.5574353 113.52381454 0.54724365 112.27345917 0.53674316 110.98521423 C0.51196618 107.60166799 0.49993245 104.21855371 0.49388909 100.83495498 C0.48442199 97.28218209 0.45821288 93.72953069 0.43388367 90.17683411 C0.39044186 83.4695073 0.3617586 76.76220436 0.33856028 70.0547803 C0.31138793 62.41005528 0.26748459 54.76545383 0.22227156 47.12081754 C0.12974552 31.41394218 0.05791924 15.70704346 0 0 Z " fill="#EEEEEE" transform="translate(126,216)"/>
<path d="M0 0 C7.45361329 6.82304731 11.30407278 16.40437844 11.86328125 26.3984375 C11.27267893 34.31732978 8.69345869 43.03282109 3.55078125 49.1484375 C2.66390625 49.8909375 1.77703125 50.6334375 0.86328125 51.3984375 C0.37214844 51.88957031 -0.11898437 52.38070312 -0.625 52.88671875 C-7.10536821 59.11962659 -14.73237783 61.5811807 -23.63671875 61.8984375 C-33.96862899 61.51894791 -42.88231336 57.8504337 -50.13671875 50.3984375 C-57.01120007 40.95708976 -60.21166631 31.57558878 -58.57421875 19.8984375 C-56.52010348 10.20301345 -50.48492279 1.70711216 -42.30078125 -3.84765625 C-28.25863357 -11.67113853 -12.56423925 -9.4174371 0 0 Z " fill="#F7F7F7" transform="translate(225.13671875,229.6015625)"/>
<path d="M0 0 C8.98413686 10.04571978 10.63835609 18.85632621 9.97607422 31.92333984 C9.5785402 36.23927824 8.19560545 39.44796941 5.78515625 42.99609375 C5.27597656 43.77339844 4.76679688 44.55070312 4.2421875 45.3515625 C-1.37655603 53.23323249 -8.67561643 58.09117892 -18.21484375 59.99609375 C-29.12790128 61.13315947 -38.15431444 59.18970152 -47.08984375 52.74609375 C-54.04914143 46.94460409 -58.14772023 39.31844682 -59.046875 30.29296875 C-59.10230469 29.535 -59.15773438 28.77703125 -59.21484375 27.99609375 C-59.31345703 26.70445312 -59.31345703 26.70445312 -59.4140625 25.38671875 C-59.80461028 15.85196598 -57.27548677 9.10466033 -51.21484375 1.74609375 C-45.49632763 -4.23620895 -38.29002441 -8.59172535 -30.02734375 -9.94140625 C-18.82687852 -10.12502043 -8.33865944 -7.96196436 0 0 Z " fill="#F8F8F8" transform="translate(388.21484375,231.00390625)"/>
<path d="M0 0 C1.17884766 0.30808594 2.35769531 0.61617188 3.57226562 0.93359375 C4.77947266 1.25457031 5.98667969 1.57554687 7.23046875 1.90625 C8.45701172 2.22722656 9.68355469 2.54820312 10.94726562 2.87890625 C19.87062703 5.22380276 19.87062703 5.22380276 23.41796875 6.40625 C26.35815823 20.37215005 23.99591036 34.33767633 16.41796875 46.40625 C9.8931799 55.01897128 -1.57845217 62.33790743 -12.26953125 63.96875 C-22.71800281 63.48371457 -31.70979344 55.58473727 -38.58203125 48.40625 C-47.27746673 38.81001888 -48.58850587 28.14651225 -48.83203125 15.59375 C-48.8578125 14.30855469 -48.88359375 13.02335937 -48.91015625 11.69921875 C-48.58203125 8.40625 -48.58203125 8.40625 -47.48608398 6.83032227 C-43.29326496 3.69444416 -37.57397452 2.98224239 -32.55053711 1.70703125 C-30.41454129 1.16136184 -28.2867055 0.58973617 -26.15820312 0.015625 C-24.78557154 -0.3401478 -23.41253538 -0.69436403 -22.0390625 -1.046875 C-20.8013208 -1.36817383 -19.5635791 -1.68947266 -18.28833008 -2.02050781 C-11.88971827 -3.01016202 -6.21614251 -1.63604865 0 0 Z " fill="#000000" transform="translate(418.58203125,353.59375)"/>
<path d="M0 0 C24.42 0 48.84 0 74 0 C74 6.6 74 13.2 74 20 C61.625 20.495 61.625 20.495 49 21 C49 45.75 49 70.5 49 96 C41.08 96 33.16 96 25 96 C25 70.92 25 45.84 25 20 C16.75 20 8.5 20 0 20 C0 13.4 0 6.8 0 0 Z " fill="#000000" transform="translate(896,178)"/>
<path d="M0 0 C5.75312677 4.04897118 8.23731958 9.32270466 9.44140625 16.109375 C10.25527878 24.48287117 8.02029723 29.82833221 2.75390625 36.234375 C-1.14018752 40.52499528 -4.91132579 41.59626356 -10.62109375 42.234375 C-17.93763439 42.52871859 -23.20501263 41.22038716 -29.30859375 37.234375 C-31.24609375 35.234375 -31.24609375 35.234375 -31.24609375 32.234375 C-31.90609375 32.234375 -32.56609375 32.234375 -33.24609375 32.234375 C-36.61604724 26.50684089 -36.90614893 19.00218999 -35.77734375 12.55859375 C-34.40999805 8.13701391 -32.61787094 4.50078415 -29.24609375 1.234375 C-28.25609375 1.234375 -27.26609375 1.234375 -26.24609375 1.234375 C-26.24609375 0.574375 -26.24609375 -0.085625 -26.24609375 -0.765625 C-16.99851693 -4.24822308 -8.86104944 -4.94070636 0 0 Z " fill="#060606" transform="translate(218.24609375,238.765625)"/>
<path d="M0 0 C0.92683594 0.07863281 1.85367187 0.15726563 2.80859375 0.23828125 C5.63083467 0.69864679 7.95678984 1.52888115 10.5625 2.6875 C10.5625 3.3475 10.5625 4.0075 10.5625 4.6875 C11.16707031 4.78546875 11.77164063 4.8834375 12.39453125 4.984375 C15.77660794 6.08126474 16.77832071 8.12410877 18.51171875 11.11328125 C21.45803136 18.33119949 21.48992101 26.60752583 18.57421875 33.82421875 C15.63045536 39.24574437 10.04799125 43.58681855 4.1875 45.4375 C-4.50268776 46.26513693 -10.4408027 45.45444429 -17.6875 40.4375 C-22.90941138 35.21558862 -25.07964311 30.6079141 -25.53515625 23.30859375 C-25.25834002 15.87884602 -22.8598981 9.7484049 -17.4375 4.6875 C-11.69548117 1.13019351 -6.77865603 -0.62991672 0 0 Z " fill="#050505" transform="translate(362.4375,235.3125)"/>
<path d="M0 0 C4.82625 -0.0825 9.6525 -0.165 14.625 -0.25 C16.13658691 -0.28641602 17.64817383 -0.32283203 19.20556641 -0.36035156 C20.40874512 -0.3703418 21.61192383 -0.38033203 22.8515625 -0.390625 C24.68968506 -0.4220459 24.68968506 -0.4220459 26.56494141 -0.45410156 C31.34006905 0.17715199 34.38286326 2.31140838 37.6796875 5.75390625 C41.43410408 11.43460846 41.55316744 16.31282026 41 23 C40.34 23 39.68 23 39 23 C38.7525 23.7425 38.505 24.485 38.25 25.25 C36.89534961 28.23023087 35.4898459 29.89919252 33 32 C32.34 32 31.68 32 31 32 C32.45475642 34.46051394 33.91361012 36.91843052 35.375 39.375 C35.99375 40.42300781 35.99375 40.42300781 36.625 41.4921875 C37.02460937 42.1625 37.42421875 42.8328125 37.8359375 43.5234375 C38.38580322 44.450354 38.38580322 44.450354 38.94677734 45.39599609 C40.03259894 47.16790733 40.03259894 47.16790733 42 49 C42 50.32 42 51.64 42 53 C37.50096581 53.66978103 33.47205698 53.94038581 29 53 C25.6978729 49.81095945 23.91067565 46.13794581 22 42 C20.77788921 39.48157884 19.57475151 37.33672805 18 35 C16.02 34.67 14.04 34.34 12 34 C12 40.27 12 46.54 12 53 C8.04 53 4.08 53 0 53 C0 35.51 0 18.02 0 0 Z M12 10 C12 14.29 12 18.58 12 23 C14.84625 23.0928125 14.84625 23.0928125 17.75 23.1875 C18.81734375 23.22230469 19.8846875 23.25710938 20.984375 23.29296875 C24.33563062 22.9673934 25.66789429 22.39347691 28 20 C28.51020728 15.91834173 28.31361802 14.47042703 26 11 C22.94517539 9.83783846 19.99027838 9.89486476 16.75 9.9375 C14.39875 9.9684375 14.39875 9.9684375 12 10 Z " fill="#030303" transform="translate(707,295)"/>
<path d="M0 0 C4.29 0 8.58 0 13 0 C13.01458252 1.03406982 13.02916504 2.06813965 13.04418945 3.13354492 C13.10230882 6.98236082 13.17954023 10.83059999 13.26245117 14.67895508 C13.29563655 16.34227108 13.32368834 18.00569796 13.34643555 19.66918945 C13.38009999 22.06509499 13.4324194 24.45999035 13.48828125 26.85546875 C13.49467117 27.5952446 13.5010611 28.33502045 13.50764465 29.09721375 C13.63290819 33.5292359 14.1892747 36.5136395 17 40 C21.59682513 41.53227504 25.42147572 41.72063065 29.875 39.6875 C32.26971972 38.10128715 32.26971972 38.10128715 33 35 C33.15346953 32.34393699 33.25717898 29.70904905 33.31640625 27.05078125 C33.33718735 26.27816452 33.35796844 25.50554779 33.37937927 24.70951843 C33.44471038 22.2439352 33.50368315 19.77824639 33.5625 17.3125 C33.60570087 15.63996309 33.64931566 13.96743681 33.69335938 12.29492188 C33.8003749 8.1967225 33.90168857 4.09841704 34 0 C38.29 0 42.58 0 47 0 C47.0500364 4.3558609 47.08601534 8.7115624 47.10986328 13.06762695 C47.11982183 14.54454468 47.13339361 16.02144322 47.15087891 17.49829102 C47.41366808 40.29138698 47.41366808 40.29138698 42.875 46.4375 C35.42276719 53.07970751 28.76815237 53.78948783 19.01171875 53.37109375 C13.0009117 52.92661804 9.27031639 51.55661735 5.234375 47.01171875 C-0.02253082 39.90015691 -0.13243735 32.84446191 -0.09765625 24.21875 C-0.0962413 23.51979614 -0.09482635 22.82084229 -0.09336853 22.10070801 C-0.0878367 19.90042571 -0.07529777 17.70025077 -0.0625 15.5 C-0.05747616 13.99479315 -0.05291482 12.48958468 -0.04882812 10.984375 C-0.03788977 7.32288265 -0.02067359 3.66145183 0 0 Z " fill="#050505" transform="translate(650,295)"/>
<path d="M0 0 C11.22 0 22.44 0 34 0 C34 3.63 34 7.26 34 11 C23.605 11.495 23.605 11.495 13 12 C13 14.64 13 17.28 13 20 C19.27 20 25.54 20 32 20 C33 24 33 24 33 32 C23.1 32.495 23.1 32.495 13 33 C13 35.64 13 38.28 13 41 C13.63091553 40.99476318 14.26183105 40.98952637 14.91186523 40.98413086 C17.75373347 40.96342174 20.59558588 40.95035934 23.4375 40.9375 C24.92733398 40.92493164 24.92733398 40.92493164 26.44726562 40.91210938 C27.39150391 40.90888672 28.33574219 40.90566406 29.30859375 40.90234375 C30.18314209 40.89710693 31.05769043 40.89187012 31.95874023 40.88647461 C34 41 34 41 35 42 C35 45.63 35 49.26 35 53 C23.45 53 11.9 53 0 53 C0 35.51 0 18.02 0 0 Z " fill="#040404" transform="translate(560,295)"/>
<path d="M0 0 C11.22 0 22.44 0 34 0 C34 3.63 34 7.26 34 11 C27.07 11 20.14 11 13 11 C13 14.3 13 17.6 13 21 C14.35996094 20.91621094 15.71992187 20.83242188 17.12109375 20.74609375 C18.8932132 20.64295452 20.66534953 20.54010485 22.4375 20.4375 C23.33533203 20.38142578 24.23316406 20.32535156 25.15820312 20.26757812 C26.01220703 20.21923828 26.86621094 20.17089844 27.74609375 20.12109375 C28.53685303 20.0739624 29.3276123 20.02683105 30.14233398 19.97827148 C32 20 32 20 33 21 C33.14310287 24.6691577 33.04221662 28.32715441 33 32 C26.4 32 19.8 32 13 32 C13 34.97 13 37.94 13 41 C19.93 41 26.86 41 34 41 C34 44.96 34 48.92 34 53 C22.78 53 11.56 53 0 53 C0 35.51 0 18.02 0 0 Z " fill="#030303" transform="translate(756,295)"/>
<path d="M0 0 C1.64452148 0.01546875 1.64452148 0.01546875 3.32226562 0.03125 C11.37777297 0.19027297 11.37777297 0.19027297 13.6875 2.5 C13.8828125 5.1015625 13.8828125 5.1015625 13.8125 8.125 C13.79445313 9.12789063 13.77640625 10.13078125 13.7578125 11.1640625 C13.73460937 11.93492187 13.71140625 12.70578125 13.6875 13.5 C12.800625 13.17 11.91375 12.84 11 12.5 C5.4052017 10.87347101 -0.54352215 11.14048399 -6.3125 11.5 C-7.60883621 12.56645115 -7.60883621 12.56645115 -7.375 15.0625 C-7.354375 15.866875 -7.33375 16.67125 -7.3125 17.5 C-3.14966216 19.35015015 0.98874781 20.93569954 5.3125 22.375 C9.98242843 24.04924632 12.66469862 25.57035821 15.6875 29.5 C17.48315011 34.88695034 17.51224005 40.97079718 15.75 46.375 C10.27333674 52.01762275 5.31427757 53.7677528 -2.49023438 53.93823242 C-8.78378021 53.93644041 -13.37200202 53.87619919 -19.3125 51.5 C-19.3125 47.21 -19.3125 42.92 -19.3125 38.5 C-16.3828125 39.54166667 -13.453125 40.58333333 -10.5234375 41.625 C-6.49505667 42.72275828 -3.04412624 42.96800709 1 41.875 C3.50453262 39.83426971 3.26807409 37.5979379 3.6875 34.5 C2.90246094 34.32984375 2.11742187 34.1596875 1.30859375 33.984375 C-4.9234188 32.54680646 -9.98485344 31.05176437 -15.3125 27.5 C-16.02019531 27.14550781 -16.72789062 26.79101562 -17.45703125 26.42578125 C-20.46971327 23.29893444 -20.01002372 19.86739132 -20 15.6875 C-20.04060547 14.89279297 -20.08121094 14.09808594 -20.12304688 13.27929688 C-20.14818979 8.93675635 -19.62021197 6.13365826 -16.5390625 2.95703125 C-11.50837221 -0.73427373 -5.99155694 -0.22947914 0 0 Z " fill="#050505" transform="translate(535.3125,294.5)"/>
<path d="M0 0 C1.20849609 0.00644531 2.41699219 0.01289063 3.66210938 0.01953125 C5.55606445 0.04466797 5.55606445 0.04466797 7.48828125 0.0703125 C8.76251953 0.07933594 10.03675781 0.08835937 11.34960938 0.09765625 C14.50018752 0.12125609 17.65039108 0.15418056 20.80078125 0.1953125 C21.82656404 4.96502979 21.5338841 8.38941604 20.80078125 13.1953125 C18.03801948 12.67262784 15.47469365 12.08661663 12.80078125 11.1953125 C11.01198323 11.0762439 9.21849565 11.02009137 7.42578125 11.0078125 C6.48992188 10.99363281 5.5540625 10.97945313 4.58984375 10.96484375 C1.58953413 11.21276849 -0.51938595 11.83685054 -3.19921875 13.1953125 C-6.57840171 18.02271673 -7.35093645 23.40326636 -7.19921875 29.1953125 C-6.3940315 33.14139548 -5.14778965 36.27638444 -2.19921875 39.1328125 C5.19700971 43.06205887 13.06047761 40.91537998 20.80078125 39.1953125 C21.29578125 45.1353125 21.29578125 45.1353125 21.80078125 51.1953125 C13.3058284 54.59329364 1.09371211 55.15368115 -7.51171875 51.5078125 C-9.48046875 50.37890625 -9.48046875 50.37890625 -11.19921875 49.1953125 C-12.83890625 48.1434375 -12.83890625 48.1434375 -14.51171875 47.0703125 C-20.16394396 41.02374599 -21.44845107 34.79380713 -21.63671875 26.6328125 C-21.18397937 13.39684344 -21.18397937 13.39684344 -16.1015625 7.9453125 C-10.86126911 3.17366324 -7.27639411 -0.06832295 0 0 Z " fill="#080808" transform="translate(622.19921875,294.8046875)"/>
<path d="M0 0 C4.66666667 2.33333333 4.66666667 2.33333333 6 5 C6.11868083 6.33092311 6.17955052 7.66728857 6.20874023 9.00317383 C6.23767616 10.24004692 6.23767616 10.24004692 6.26719666 11.50190735 C6.32493322 15.27474602 6.37421145 19.0473941 6.4050293 22.82055664 C6.42662006 24.80999092 6.46073572 26.79932993 6.50756836 28.78833008 C6.57451475 31.65749497 6.60201793 34.52469589 6.62109375 37.39453125 C6.64892441 38.28114944 6.67675507 39.16776764 6.70542908 40.08125305 C6.68537437 46.1098577 6.68537437 46.1098577 4.70449829 48.68255615 C1.80511642 51.18148255 -0.6454862 52.69482815 -4.5 52.625 C-5.2115625 52.63789063 -5.923125 52.65078125 -6.65625 52.6640625 C-10.20367819 51.65895785 -12.75866192 49.8796079 -15 47 C-15.87197016 43.83140101 -15.81869748 40.77056007 -15.76171875 37.5 C-15.76677177 36.13004883 -15.76677177 36.13004883 -15.77192688 34.73242188 C-15.77162854 32.80593216 -15.75642717 30.87939446 -15.72729492 28.953125 C-15.68762046 26.00893903 -15.70659072 23.06926 -15.73242188 20.125 C-15.72486229 18.24998257 -15.71390834 16.37497512 -15.69921875 14.5 C-15.7096949 13.18418945 -15.7096949 13.18418945 -15.72038269 11.84179688 C-15.61870118 7.42745516 -15.43312977 5.55722093 -12.64379883 1.96875 C-8.15665203 -1.37268059 -5.35281607 -1.10747919 0 0 Z " fill="#FBFBFB" transform="translate(287,242)"/>
<path d="M0 0 C6.05084275 7.19559678 6.33066948 15.03518286 6 24 C4.28103516 23.566875 4.28103516 23.566875 2.52734375 23.125 C0.99749932 22.74957805 -0.53245451 22.37460171 -2.0625 22 C-2.81466797 21.80921875 -3.56683594 21.6184375 -4.34179688 21.421875 C-11.86809306 19.59731835 -17.77558832 19.67031324 -25.25 22 C-31.72222222 24 -31.72222222 24 -35 24 C-35.52374938 7.76376929 -35.52374938 7.76376929 -30.75 1.5625 C-21.86284073 -6.71871659 -9.6496529 -7.00072858 0 0 Z " fill="#000000" transform="translate(421,325)"/>
<path d="M0 0 C0.66 2.31 1.32 4.62 2 7 C2.99 5.02 3.98 3.04 5 1 C5.66 1 6.32 1 7 1 C6 8 5 15 4 22 C3.01 22 2.02 22 1 22 C-0.11517502 16.01270113 -1.19500136 10.03748977 -2 4 C-4.15352991 4.79302402 -4.15352991 4.79302402 -4.66796875 6.78515625 C-5.91405778 12.24733599 -6.00286629 16.48423539 -5 22 C-5.99 21.67 -6.98 21.34 -8 21 C-8.70491267 18.67793475 -9.37212429 16.34406932 -10 14 C-10.66 13.67 -11.32 13.34 -12 13 C-12 15.97 -12 18.94 -12 22 C-16 23 -16 23 -19 22 C-20.2375 22.061875 -20.2375 22.061875 -21.5 22.125 C-24 22 -24 22 -25.6328125 20.99609375 C-27.77226243 17.87249685 -27.43308152 14.58695536 -27.375 10.9375 C-27.38660156 10.20466797 -27.39820312 9.47183594 -27.41015625 8.71679688 C-27.3984375 6.58984375 -27.3984375 6.58984375 -27 3 C-19.01979006 -2.32013996 -9.07680404 -1.51280067 0 0 Z " fill="#222222" transform="translate(138,122)"/>
<path d="M0 0 C2.9375 2 2.9375 2 5 5 C5.79639219 9.72857864 5.68333228 12.97500157 3 17 C2.34 17 1.68 17 1 17 C1.12568359 18.71509766 1.12568359 18.71509766 1.25390625 20.46484375 C1.35704794 21.95571002 1.45989747 23.44659653 1.5625 24.9375 C1.61857422 25.69224609 1.67464844 26.44699219 1.73242188 27.22460938 C1.86176157 29.14745958 1.93516912 31.07389548 2 33 C1 34 1 34 -1.72265625 34.09765625 C-2.82480469 34.08605469 -3.92695313 34.07445312 -5.0625 34.0625 C-6.71958984 34.04896484 -6.71958984 34.04896484 -8.41015625 34.03515625 C-9.26480469 34.02355469 -10.11945313 34.01195312 -11 34 C-11.81632813 30.58088652 -11.95141053 28.69874529 -11.375 25.125 C-10.71321421 20.71585219 -12.0987437 18.02188833 -14 14 C-15.16831008 9.56042168 -15.41680257 7.81816802 -13.3125 3.6875 C-9.08626368 -1.22407194 -6.35531304 -1.6724508 0 0 Z " fill="#343434" transform="translate(411,365)"/>
<path d="M0 0 C0.66 0 1.32 0 2 0 C2.23074219 0.68707031 2.46148437 1.37414062 2.69921875 2.08203125 C4.5848703 7.56125751 4.5848703 7.56125751 8.1875 11.9375 C12.08998056 13.41177044 16.01210573 14.77496058 20 16 C20 17.32 20 18.64 20 20 C19.33613281 20.14695312 18.67226563 20.29390625 17.98828125 20.4453125 C11.86053399 22.00184976 8.47705856 23.41563323 5 29 C4.47420896 30.42826819 3.97428725 31.86631265 3.5 33.3125 C2.7575 35.1378125 2.7575 35.1378125 2 37 C-0.6875 38 -0.6875 38 -3 38 C-2.773125 37.154375 -2.54625 36.30875 -2.3125 35.4375 C-1.93484687 31.28331561 -2.54527245 28.34029382 -5 25 C-7.51947341 23.02608185 -10.15842366 21.46466049 -13 20 C-13.33 20.99 -13.66 21.98 -14 23 C-14 22.01 -14 21.02 -14 20 C-14.99 19.67 -15.98 19.34 -17 19 C-17.6875 16.9375 -17.6875 16.9375 -18 15 C-17.40832031 14.98582031 -16.81664062 14.97164063 -16.20703125 14.95703125 C-12.09355477 14.70874637 -9.60556085 14.43062105 -6.1875 12 C-3.44031736 8.23243523 -1.68814227 4.32881174 0 0 Z " fill="#414141" transform="translate(459,371)"/>
<path d="M0 0 C3.7836556 1.49997928 5.52286438 3.65229821 7.9375 6.875 C10.07923132 9.72780315 11.95517541 11.96426749 14.75390625 14.1953125 C15.49511719 14.79085938 16.23632812 15.38640625 17 16 C17 16.66 17 17.32 17 18 C17.61875 18.309375 18.2375 18.61875 18.875 18.9375 C20.25 19.625 21.625 20.3125 23 21 C23 21.66 23 22.32 23 23 C24.65 23.66 26.3 24.32 28 25 C28 25.66 28 26.32 28 27 C28.68835938 27.24105469 29.37671875 27.48210937 30.0859375 27.73046875 C33.53189146 29.23172215 36.5207167 31.22266593 39.625 33.3125 C50.02247232 40.61506387 50.02247232 40.61506387 62.0625 43.1875 C67.28313969 42.06043726 71.58602784 38.86402774 76 36 C77.60239995 35.08024848 79.2065744 34.16358166 80.8125 33.25 C91.10881472 27.05928016 100.24719249 19.17982463 109 11 C109.99 11.33 110.98 11.66 112 12 C111.34 12 110.68 12 110 12 C109.7834375 12.56074219 109.566875 13.12148438 109.34375 13.69921875 C101.99392348 26.28366009 83.20245104 34.8040403 71 42 C70.13761719 42.5671875 69.27523437 43.134375 68.38671875 43.71875 C63.68020519 46.24532357 59.15454619 45.99216208 54 45 C49.34729824 42.86793776 45.19959096 40.243498 40.98388672 37.35595703 C38.97866404 35.98541719 36.94851239 34.66048932 34.91015625 33.33984375 C26.1716104 27.59897332 18.46780143 21.31958552 11 14 C9.93458984 12.97519531 9.93458984 12.97519531 8.84765625 11.9296875 C5.64951248 8.80591917 2.60572971 5.64802159 0 2 C0 1.34 0 0.68 0 0 Z " fill="#212121" transform="translate(346,412)"/>
<path d="M0 0 C2.5 0.25 2.5 0.25 4.5 2.25 C4.69856972 5.12342061 4.77828946 7.87861988 4.75 10.75 C4.75773438 11.53503906 4.76546875 12.32007813 4.7734375 13.12890625 C4.75330787 18.99669213 4.75330787 18.99669213 2.5 21.25 C0 21.5 0 21.5 -2.5 21.25 C-5.12723824 18.62276176 -4.76115971 16.70788327 -4.7734375 13.12890625 C-4.76570312 12.34386719 -4.75796875 11.55882812 -4.75 10.75 C-4.75773438 9.96496094 -4.76546875 9.17992187 -4.7734375 8.37109375 C-4.74634845 0.47463484 -4.74634845 0.47463484 0 0 Z " fill="#5A5A5A" transform="translate(183.5,122.75)"/>
<path d="M0 0 C0.99 0 1.98 0 3 0 C3.99 2.64 4.98 5.28 6 8 C6.33 5.36 6.66 2.72 7 0 C7.99 0 8.98 0 10 0 C10 6.93 10 13.86 10 21 C8.68 20.67 7.36 20.34 6 20 C5.34 17.69 4.68 15.38 4 13 C3.67 15.64 3.34 18.28 3 21 C2.01 21 1.02 21 0 21 C0 14.07 0 7.14 0 0 Z " fill="#545454" transform="translate(98,123)"/>
<path d="M0 0 C0.99 0 1.98 0 3 0 C3.99 2.64 4.98 5.28 6 8 C6.33 5.36 6.66 2.72 7 0 C7.99 0 8.98 0 10 0 C10 6.93 10 13.86 10 21 C9.01 21 8.02 21 7 21 C6.01 18.36 5.02 15.72 4 13 C3.67 15.64 3.34 18.28 3 21 C2.01 21 1.02 21 0 21 C0 14.07 0 7.14 0 0 Z " fill="#555555" transform="translate(192,123)"/>
<path d="M0 0 C2.31 0 4.62 0 7 0 C9 2 9 2 9.1875 5.9375 C9.16190316 8.67636155 8.88664156 10.34007532 8 13 C8.09268505 15.06618749 8.09268505 15.06618749 8.4375 17.1875 C8.623125 18.445625 8.80875 19.70375 9 21 C8.01 20.67 7.02 20.34 6 20 C5.29508733 17.67793475 4.62787571 15.34406932 4 13 C3.34 12.67 2.68 12.34 2 12 C2 14.97 2 17.94 2 21 C1.34 21 0.68 21 0 21 C0 14.07 0 7.14 0 0 Z " fill="#595959" transform="translate(124,123)"/>
<path d="M0 0 C30.2148368 12.42967359 30.2148368 12.42967359 32 16 C32.10196736 18.09744646 32.13842651 20.19818326 32.14526367 22.2980957 C32.14862228 22.94384552 32.1519809 23.58959534 32.15544128 24.25491333 C32.16495976 26.39522208 32.16689504 28.53545263 32.16796875 30.67578125 C32.17118144 32.16310153 32.17454552 33.65042148 32.17805481 35.13774109 C32.18404883 38.25907117 32.1858945 41.38037355 32.18530273 44.50170898 C32.18520126 48.49648675 32.19883674 52.49108618 32.21607494 56.48582172 C32.22720979 59.55965486 32.22922146 62.63344514 32.22869301 65.70729637 C32.22987153 67.17965495 32.23428614 68.6520147 32.24202538 70.12435341 C32.25185245 72.18760153 32.2489364 74.25046605 32.24291992 76.3137207 C32.24434494 77.48683304 32.24576996 78.65994537 32.24723816 79.86860657 C32.00128177 82.98376576 31.32851086 85.19125373 30 88 C29.67 88 29.34 88 29 88 C29.16153564 86.80616699 29.32307129 85.61233398 29.48950195 84.38232422 C30.20630255 77.89088826 30.16228973 71.40700937 30.16796875 64.8828125 C30.17118839 63.53522711 30.17455298 62.18764206 30.17805481 60.84005737 C30.18400311 58.03463936 30.18589876 55.22925199 30.18530273 52.42382812 C30.18520041 48.82924574 30.19894301 45.23485779 30.21607494 41.64032173 C30.22717808 38.86596773 30.2292226 36.09166139 30.22869301 33.31728745 C30.23044413 31.34799488 30.24127887 29.37871717 30.25224304 27.40945435 C30.24916641 26.21746429 30.24608978 25.02547424 30.24291992 23.79736328 C30.24434494 22.74751251 30.24576996 21.69766174 30.24723816 20.61599731 C30.18638521 17.76613085 30.18638521 17.76613085 28 15 C24.58839722 13.0383284 21.03264058 11.61056916 17.375 10.1875 C11.39028965 7.84288024 5.70888265 4.94272302 0 2 C0 1.34 0 0.68 0 0 Z " fill="#232323" transform="translate(448,299)"/>
<path d="M0 0 C7 0 7 0 10 2 C10.36328125 3.875 10.36328125 3.875 10.3125 6 C10.30863281 6.70125 10.30476562 7.4025 10.30078125 8.125 C10 10 10 10 8 12 C5.375 12.125 5.375 12.125 3 12 C3 14.97 3 17.94 3 21 C2.01 21 1.02 21 0 21 C0 14.07 0 7.14 0 0 Z " fill="#565656" transform="translate(148,123)"/>
<path d="M0 0 C2.97 0 5.94 0 9 0 C9 0.66 9 1.32 9 2 C7.02 2 5.04 2 3 2 C3 4.31 3 6.62 3 9 C4.98 9 6.96 9 9 9 C9 9.66 9 10.32 9 11 C7.02 11 5.04 11 3 11 C3 13.31 3 15.62 3 18 C4.98 18 6.96 18 9 18 C9 18.99 9 19.98 9 21 C6.03 21 3.06 21 0 21 C0 14.07 0 7.14 0 0 Z " fill="#535353" transform="translate(86,123)"/>
<path d="M0 0 C1.093125 0.226875 2.18625 0.45375 3.3125 0.6875 C4.59567892 4.53703676 4.37893637 7.63488135 4.3125 11.6875 C1.85426828 8.00015242 1.30007384 4.99050029 0.3125 0.6875 C-0.6775 0.6875 -1.6675 0.6875 -2.6875 0.6875 C-2.6875 7.6175 -2.6875 14.5475 -2.6875 21.6875 C-4.0075 21.0275 -5.3275 20.3675 -6.6875 19.6875 C-6.76839542 16.91608283 -6.82794062 14.14702181 -6.875 11.375 C-6.91270508 10.19647461 -6.91270508 10.19647461 -6.95117188 8.99414062 C-6.96083984 8.23681641 -6.97050781 7.47949219 -6.98046875 6.69921875 C-6.9961792 6.00272217 -7.01188965 5.30622559 -7.02807617 4.58862305 C-6.24288508 0.20562445 -4.1630107 -0.35279752 0 0 Z " fill="#202020" transform="translate(194.6875,122.3125)"/>
<path d="M0 0 C2 2 2 2 2 5 C1.34 5 0.68 5 0 5 C-0.33 4.34 -0.66 3.68 -1 3 C-1.99 3 -2.98 3 -4 3 C-4.33 7.95 -4.66 12.9 -5 18 C-2.69 17.34 -0.38 16.68 2 16 C1.125 19.875 1.125 19.875 0 21 C-2.63743611 21.27762485 -4.34765728 21.40227801 -6.640625 19.98828125 C-8.77338964 16.86880653 -8.43297604 13.58032782 -8.375 9.9375 C-8.38660156 9.20466797 -8.39820312 8.47183594 -8.41015625 7.71679688 C-8.3984375 5.58984375 -8.3984375 5.58984375 -8 2 C-4.77626323 -0.14915785 -3.73296326 -0.38286803 0 0 Z " fill="#545454" transform="translate(119,123)"/>
<path d="M0 0 C2.0625 0.4375 2.0625 0.4375 4 1 C4 1.99 4 2.98 4 4 C4.66 4 5.32 4 6 4 C5.88541307 5.43836751 5.75790884 6.87570966 5.625 8.3125 C5.55539063 9.11300781 5.48578125 9.91351563 5.4140625 10.73828125 C5 13 5 13 3 16 C1.68 16 0.36 16 -1 16 C-1.02685095 13.52076199 -1.04676547 11.0418116 -1.0625 8.5625 C-1.07506836 7.50192383 -1.07506836 7.50192383 -1.08789062 6.41992188 C-1.09653588 4.61306441 -1.05220011 2.80612397 -1 1 C-0.67 0.67 -0.34 0.34 0 0 Z " fill="#131313" transform="translate(115,125)"/>
<path d="M0 0 C0.99 0 1.98 0 3 0 C3.66 1.98 4.32 3.96 5 6 C5.99 4.02 6.98 2.04 8 0 C8.66 0 9.32 0 10 0 C9 7 8 14 7 21 C6.01 21 5.02 21 4 21 C3.87882813 20.32195312 3.75765625 19.64390625 3.6328125 18.9453125 C2.49299238 12.61492691 1.28510307 6.30247356 0 0 Z " fill="#545454" transform="translate(135,123)"/>
<path d="M0 0 C1.98 0.495 1.98 0.495 4 1 C4 5.95 4 10.9 4 16 C2.35 15.67 0.7 15.34 -1 15 C-1.02685412 12.68756208 -1.04632841 10.3750373 -1.0625 8.0625 C-1.07410156 6.77472656 -1.08570313 5.48695313 -1.09765625 4.16015625 C-1 1 -1 1 0 0 Z " fill="#222222" transform="translate(182,125)"/>
<path d="M0 0 C2.97 0 5.94 0 9 0 C9 0.66 9 1.32 9 2 C8.01 2 7.02 2 6 2 C6 8.27 6 14.54 6 21 C5.01 21 4.02 21 3 21 C3 14.73 3 8.46 3 2 C2.01 2 1.02 2 0 2 C0 1.34 0 0.68 0 0 Z " fill="#575757" transform="translate(160,123)"/>
<path d="M0 0 C0.99 0 1.98 0 3 0 C3 6.93 3 13.86 3 21 C2.01 21 1.02 21 0 21 C0 14.07 0 7.14 0 0 Z " fill="#545454" transform="translate(172,123)"/>
<path d="M0 0 C4.37859255 0.50522222 6.81651224 3.17827222 10 6 C8.50871999 9.79598549 6.34266559 11.71720399 3 14 C2.01 14 1.02 14 0 14 C1.36983503 10.83884224 1.9890638 10.0072908 5 8 C3.63016497 4.83884224 3.0109362 4.0072908 0 2 C0 1.34 0 0.68 0 0 Z " fill="#555555" transform="translate(89,88)"/>
<path d="M0 0 C0.66 0 1.32 0 2 0 C-1.01171196 8.20431878 -6.20963478 15.50777233 -12 22 C-12.33 21.01 -12.66 20.02 -13 19 C-11.26953125 16.58203125 -11.26953125 16.58203125 -8.8125 13.8125 C-5.01949407 9.36960209 -2.31844201 5.3424968 0 0 Z " fill="#1E1E1E" transform="translate(471,401)"/>
<path d="M0 0 C-0.8125 1.9375 -0.8125 1.9375 -2 4 C-2.99 4.33 -3.98 4.66 -5 5 C-5.66 4.01 -6.32 3.02 -7 2 C-9.89608399 1.63501966 -9.89608399 1.63501966 -13.125 1.8125 C-14.22070312 1.83957031 -15.31640625 1.86664063 -16.4453125 1.89453125 C-17.70988281 1.94673828 -17.70988281 1.94673828 -19 2 C-16.18827013 -3.62345973 -5.24926244 -0.87487707 0 0 Z " fill="#131313" transform="translate(138,122)"/>
<path d="M0 0 C3.63 0 7.26 0 11 0 C10.67 0.99 10.34 1.98 10 3 C6.7 3 3.4 3 0 3 C0 2.01 0 1.02 0 0 Z " fill="#515151" transform="translate(104,94)"/>
<path d="M0 0 C1.90318884 2.85478326 2.4619099 4.41941308 3.125 7.6875 C3.29257813 8.49574219 3.46015625 9.30398437 3.6328125 10.13671875 C3.75398437 10.75160156 3.87515625 11.36648437 4 12 C2.68 12 1.36 12 0 12 C0 8.04 0 4.08 0 0 Z " fill="#171717" transform="translate(195,133)"/>
<path d="M0 0 C1.32 0.33 2.64 0.66 4 1 C4 2.98 4 4.96 4 7 C2.68 7.33 1.36 7.66 0 8 C0 5.36 0 2.72 0 0 Z " fill="#212121" transform="translate(151,125)"/>
<path d="M0 0 C1.32 0.33 2.64 0.66 4 1 C4 2.98 4 4.96 4 7 C2.68 7.33 1.36 7.66 0 8 C0 5.36 0 2.72 0 0 Z " fill="#272727" transform="translate(126,125)"/>
<path d="M0 0 C1.32 0 2.64 0 4 0 C4 3.63 4 7.26 4 11 C1.54176828 7.31265242 0.98757384 4.30300029 0 0 Z " fill="#1C1C1C" transform="translate(101,123)"/>
<path d="M0 0 C0.99 0.33 1.98 0.66 3 1 C3.33 2.98 3.66 4.96 4 7 C3.01 7 2.02 7 1 7 C0.67 7.66 0.34 8.32 0 9 C0 6.03 0 3.06 0 0 Z " fill="#242424" transform="translate(126,135)"/>
<path d="M0 0 C0.66 0.33 1.32 0.66 2 1 C-0.97 3.97 -3.94 6.94 -7 10 C-7 6.04435836 -5.59478606 4.89133304 -3 2 C-2.01 1.34 -1.02 0.68 0 0 Z " fill="#2E2E2E" transform="translate(348,238)"/>
<path d="M0 0 C1.65 0 3.3 0 5 0 C4.34 2.64 3.68 5.28 3 8 C0.4345406 5.4345406 0.45953913 3.52313332 0 0 Z " fill="#212121" transform="translate(138,123)"/>
<path d="M0 0 C2.5654594 2.5654594 2.54046087 4.47686668 3 8 C2.01 8.33 1.02 8.66 0 9 C0 6.03 0 3.06 0 0 Z " fill="#1C1C1C" transform="translate(101,134)"/>
<path d="M0 0 C4.83256305 0.41421969 6.82679218 2.46413986 10 6 C6.00499382 4.6302836 3.19990508 2.74277578 0 0 Z " fill="#1D1D1D" transform="translate(385,447)"/>
</svg>
